<svg version="1.1" id="eagle" xmlns="http://www.w3.org/2000/svg" xmlns:xlink="http://www.w3.org/1999/xlink" x="0px" y="0px"
	 viewBox="0 0 249.092 250" enable-background="new 0 0 249.092 250" xml:space="preserve">
<g>
	<path d="M42.168,37.018"/>
	<path stroke="#000000" stroke-width="0.25" stroke-miterlimit="10" d="M41.793,37.33C16.596,49.938,27.418,72.08,30.356,75.955
		l6.812,0.438c-2.625-3.125-2.864-7.134-3.25-10.812c-0.281-2.688-0.688-9.688,1.25-19.938
		C35.168,45.643,38.856,43.268,41.793,37.33z"/>
	<path fill="none" stroke="#000000" stroke-width="0.25" stroke-miterlimit="10" d="M40.168,78.018"/>
	<path stroke="#000000" stroke-width="0.25" stroke-miterlimit="10" d="M50.668,54.393c-1.33,4.023-6.003,17.054-2.375,24.125
		c0.223,0.435-8.125-0.5-8.125-0.5c-1.537-6.562-5.518-36.241,14.938-45.25C55.106,32.768,45.606,48.83,50.668,54.393z"/>
	<path stroke="#000000" stroke-width="0.25" stroke-miterlimit="10" d="M66.418,46.768c-16.25,6.875-15.438,26.125-14.312,32.375
		l7.312,0.375c-1.312-3.875,2.75-15.812,3.688-16.875c-2.562-1-3.25-0.812-2.438-4.125C60.668,58.518,62.481,51.643,66.418,46.768z"
		/>
	<path fill="none" stroke="#000000" stroke-width="0.25" stroke-miterlimit="10" d="M48.293,78.518"/>
	<path stroke="#000000" stroke-width="0.25" stroke-miterlimit="10" d="M62.293,80.205c-1-8.312,6.312-18.438,12.125-21.188
		c-5.125,6.562-8.125,15.312-5.688,21.375C64.856,80.33,64.168,80.143,62.293,80.205z"/>
	<path stroke="#000000" stroke-width="0.25" stroke-miterlimit="10" d="M70.043,81.33c1.938-6.562,4.938-14.188,9.188-14.438
		c-1.812,0.689-2.312,3.5-2.875,6.25c-0.199,3.062-0.188,6.75,0.125,9.438C75.432,82.545,73.231,81.268,70.043,81.33z"/>
	<path fill="#C42031" stroke="#C41230" stroke-width="0.25" stroke-miterlimit="10" d="M27.918,79.518
		c-0.207-0.144,42.01,4.904,47.188,5.375c1.375,1.812,16.875,21.375,14.938,19.312c-5.807-2.433-19.312-6.812-21.375-1.062
		c-0.25,2.25,0.812,3.938,4.25,4.75s12.312,1.75,19.125,1.125c1.938,3.688,7.312,15.688,8.062,17.125
		c-16-2.188-21.625-0.125-17.812,4.312c2,2.312,10.938,4,19.5,2.812c1.812,3.812,3,12.312,2.812,14.312
		c-4.875,0.062-18.708-0.271-33.5-0.375C65.148,128.643,46.815,95.643,27.918,79.518z"/>
	<path stroke="#000000" stroke-width="0.25" stroke-miterlimit="10" d="M125.397,177.98c-34.999-36.833-64.749-28.667-82.332-12.583
		c-0.417,7.667,4.583,13,8.166,15.083c0-1.167-0.333-3.666-0.916-7.583c8.166-4.75,22.083-4.751,26.666,2.833
		c4.417,0.334,4.417,0.334,6.667,0.25c5.583-10.083,10.666-17,16.5-12c5.833,5,6.9,12.96,8.167,17.334
		C111.315,181.98,118.898,182.896,125.397,177.98z"/>
	<path fill="#FFFFFF" stroke="#FFFFFF" stroke-width="0.25" stroke-miterlimit="10" d="M60.481,158.647
		c-5.916-0.5-9.75,3.417-10.833,6.5c2.417-0.75,5.467-2.147,6.083-2.083C55.731,163.064,58.565,159.98,60.481,158.647z"/>
	<path stroke="#000000" stroke-width="0.25" stroke-miterlimit="10" d="M93.481,165.897c5.5-2,8.104,2.625,9.75,7.072
		c1.646,4.448,2,9.261,2,9.261c-3-2-5.646-3.312-8.739-4.042c-3.094-0.729-6.636-0.875-11.427-0.541
		C88.648,172.063,90.231,167.981,93.481,165.897z"/>
	<path stroke="#000000" stroke-width="0.25" stroke-miterlimit="10" d="M82.648,179.48c0,0-4.417-0.666-5.5-0.833
		c-2.333,6.166-10.25,17.666-13.25,20.333c3.417,0.083,9.083,3.584,11.083,6.917c2.084-1.5,5.417-3.334,7.667-5.084
		C75.898,199.397,74.398,191.98,82.648,179.48z"/>
	<path stroke="#000000" stroke-width="0.25" stroke-miterlimit="10" d="M67.565,217.147c0,0,7.25,1.417,7.166-7.25
		c-2.75-2.334-3.083-2.834-5.666-3.584c-22-17-32.25,6.25-21.25,10.25c-1.5-6.5-0.667-8.582,6-8.416
		c3.583-5.917,8.25-2.75,12.083,1.333C70.981,212.23,73.497,214.914,67.565,217.147z"/>
	<path stroke="#000000" stroke-width="0.25" stroke-miterlimit="10" d="M86.481,199.48c0,0-12.735-4.933-3.416-13.417
		c-0.334-1.333,0.914-4.415,3-5.666c3.583-0.834,11.666,1.833,11.666,1.833s0,7.376,7.5,10.042c-3.5,7.041-5.333,7.458-9.583,6.375
		c1.964-1.811,1.75-1.333,3.167-2.75c-0.25-2.667-5.084-7-9.917-7.5C83.565,189.063,83.398,192.397,86.481,199.48z"/>
	<path fill="#C41230" stroke="#C41230" stroke-width="0.25" stroke-miterlimit="10" d="M108.148,185.23
		c10.25,6.75,16.249,16.25,21.417,29c21-5.167,52.5-23.5,55.25-27.667c-12.918-3.583-31-8.583-39.334-14.916
		c-2.584,2.75-6.895,5.334-11.5,6.5c9.014,9.967,16.166,16.916,13.834,18.333c-4,3.667-12.584-2.264-21.418-14.632
		C119.647,184.06,110.981,185.147,108.148,185.23z"/>
	<path fill="#C41230" stroke="#C41230" stroke-width="0.25" stroke-miterlimit="10" d="M153.481,163.48c0,0-17.666,12.417-23,12.667
		c-10.166-11.334-22.916-20.917-30.833-22.084c6.917-6.5,15.917-15.416,20.083-18.75c1.728,4.227,5.25,16.917,12.584,20.417
		c0.741,0.021,2,0.417,1.666-1.167c-0.084-5.999-3-16.333-8.584-25.916c0,0,13.417-23.5,29.75-32.667
		c2.668,57.583,10.668,19.917,7.25-1.25c0,0,4.5,3.083,27.334-18.333c-2.666,26.333-8,55.417-5.584,64.75
		c-8.166,3.583-10.332,13.25-19.582,16.833c-4.918-11.75-16.25-18.75-16.25-18.75S150.731,160.23,153.481,163.48z"/>
	<path stroke="#000000" stroke-width="0.25" stroke-miterlimit="10" d="M201.147,130.897c0,0-9.749,1-12.332-3.25
		c-0.418,2.5-0.334,6-0.418,6.5C191.897,135.313,200.731,136.979,201.147,130.897z"/>
	<path stroke="#000000" stroke-width="0.25" stroke-miterlimit="10" d="M189.397,124.814c0,0-0.166-7.834,0.334-8.917
		c5,2.25,11.5,4.333,22.834,2.75c-2.418,1.417-11.084,7.833-9.334,9C205.897,128.48,191.647,128.231,189.397,124.814z"/>
	<path stroke="#000000" stroke-width="0.25" stroke-miterlimit="10" d="M190.731,113.313c0,0,0-5.75,0.5-6.084
		c2.916,0.334,21,0.167,30-9.833c1.25,5.917-9.551,14.448-13.666,16.583C203.481,114.729,196.815,116.48,190.731,113.313z"/>
	<path stroke="#000000" stroke-width="0.25" stroke-miterlimit="10" d="M192.231,104.563c0,0-0.5-6.334,0-7.167
		c1.22-0.2,22.584-2,30.416-17.667c0.334-0.666-5.25,11.834-3.75,14.584C216.426,101.406,204.647,103.313,192.231,104.563z"/>
	<path stroke="#000000" stroke-width="0.25" stroke-miterlimit="10" d="M193.397,94.313V83.979c0,0,25.584-12.749,25.5-34.75
		c2.5,1.167,5.584,6.75-1.25,14.167c4.084,7,4.918,12.416-1.832,18.833C209.065,90.062,203.065,93.229,193.397,94.313z"/>
	<path stroke="#000000" stroke-width="0.25" stroke-miterlimit="10" d="M194.647,70.229v7.917c0,0,8.334,0.166,12.084-9.167
		c5-5.167,7.75-12.5,2-17.333c2.25-4.834,1.25-13.417-14.084-12.834C205.565,50.562,202.731,61.979,194.647,70.229z"/>
</g>
</svg>
