<svg xmlns="http://www.w3.org/2000/svg" viewBox="0 0 458.019 76.207" enable-background="new 0 0 458.019 76.207" preserveAspectRatio="xMinYMin meet">
    <path d="M76.465 45.283c.113-.172.02-.786.012-1-.026-.723-.05-1.442-.05-2.17 0-1.035-.44-2.762.465-3.487.514-.416 1.195-.676 1.767-1.006m-1.56-.467c-.51.602-.358.192-.303 1.03.493-.174.438-.117.84-.36.024-.014.052-.03.08-.05m-1.03-8.978c.06.653.8.104.887.56.283.038.516-.14.722-.31.176.217.35.7.267.983.552.04.512-.276.9.162.21.243.515.59.638.897.053.123.034.377.07.53.06.245.166.393.264.61.153.335.37.84-.106 1.08.24.4-.078.834.064 1.256.175.52.45.647.087 1.08-.317.37-.483.453-.637.976-.116.406-.318.7-.81.59.002.073-.026.17-.016.245-.057.03-.13-.003-.193.016-.056.17-.078.196-.16.148m-1.564-.465c-.032.218.294.628.537.67.012.002.024.005.036.005M89.812 37.25c.667.604 1.167 1.44 2.12 1.604.157-.742.268-1.312-.2-1.942-.39-.523-.386-.27-.517-.855m.78 8.773c-.187-2.02.47-4.33-1.146-5.96-.34-.345-.83-.713-1.04-1.154-.092-.008-.107.188.043.565.152.383-.49.29-.49.29-.33.443-.618-.32-.91-.44-.255-.106-.75-.044-1.058-.098-.427-.07-1.617-.353-1.487-1.08-.226-.113-.215-.38-.21-.627-.336.02-.524-.26-.92-.218-.374.042-.507.127-.825-.11-.01-.747-1.328.054-1.523-.654-.257-.037-1.348-.594-.717-.886 0 .002.612.12.66.127.244.045.498.16.72-.018-.343-.458-1.353-.125-1.323-.836.34-.043.625.045.95.047.34 0 .502-.115.808.057.096-.06.246-.208.307-.306-.25-.165-.54-.178-.797-.326-.25-.142-.48-.44-.758-.562-.047.06-.104.084-.143.128-.008-.058-.018-.12-.02-.176-.497-.217-1.497-.702-1.33-1.46.11.2.73.637.964.665.084-.41.558-.216.834-.145.018.07.05.122.07.19.183.037.4.005.557-.038-.02.132.066.23.068.35.28.01.692.136.677.47.225.028.76-.002.877-.223.128-.245-.29-.384.09-.61-.058-.514-.55-1.02-.552-1.487.668.05 1.817.38 1.45-.61-.157-.42-.455-.64.074-.83.042-.01.52-.067.595-.07.243-.008.403.043.617.09.06-.458-.07-1.345.487-.952.412.29.37.89.92.91 0 0 .286-.71.712-.56.43.152.583-.276.707-.503.128-.227.234.367.558.7.263.266.393-1.78.96-1.305.173.145.18.813.205 1.022.06.5.218.468.482.832.21-.317-.3-.547-.097-.893.186-.315.662-.03.79.246.042-.043.12-.077.16-.106.058.656.798.106.884.56.284.04.52-.138.72-.31.178.218.353.7.268.984.55.038.514-.276.9.163.21.243.515.59.64.897.05.124.03.376.068.53.06.245.163.39.264.613.15.335.367.837-.108 1.078.24.396-.08.83.065 1.256m-6.878 3.206c.1 0 .344.328.422-.01-.025-.45.052-.73.358-1.088.205.224.485.166.623-.096M84.084 44.786c.136.212.436.223.567.022.086-.128.015-.584.01-.74-.02-.535-.037-1.067-.037-1.605 0-.77-.326-2.046.344-2.584.38-.31.883-.5 1.308-.746m-3.807.118c.492.445.863 1.063 1.568 1.187.115-.55.2-.976-.146-1.44-.29-.39-.286-.2-.386-.635m1.616.425c-.378.444-.263.144-.222.764.362-.13.324-.088.618-.267l.063-.037m-9.08-4.038c.063-.304.414-.16.617-.105.013.05.038.09.05.14.136.028.297.005.414-.025-.01.097.05.17.05.258.21.006.515.1.5.345.168.022.565 0 .65-.162.095-.183-.213-.285.067-.454-.042-.38-.407-.756-.407-1.1.492.035 1.343.28 1.07-.453-.114-.312-.335-.474.057-.614.027-.01.383-.052.44-.054.178-.005.297.03.457.067.043-.34-.055-.996.36-.706.305.216.272.66.683.676 0 0 .21-.524.524-.416.32.114.434-.204.524-.37.096-.17.174.27.412.52.195.195.292-1.32.712-.97.13.108.132.604.15.76.046.37.162.345.358.614.154-.236-.223-.404-.074-.66.138-.233.49-.024.585.18.03-.03.09-.056.118-.077.045.485.59.077.657.414.21.03.38-.1.53-.227.133.16.262.52.2.73.407.028.378-.206.665.12.158.18.383.437.473.662.038.09.023.28.052.394.042.183.122.29.195.452.11.248.272.623-.08.798.178.293-.058.617.047.93.13.385.333.48.063.8-.233.273-.356.335-.47.722-.088.303-.234.52-.6.438 0 .056-.02.13-.013.183-.04.024-.097-.003-.14.012-.044.127-.06.146-.122.11m-2.188 5.717c-.14-1.496.348-3.207-.85-4.413-.25-.257-.61-.528-.766-.855-.07-.008-.082.137.03.416.114.283-.362.22-.362.22-.244.325-.457-.238-.673-.333-.187-.077-.554-.03-.783-.07-.318-.052-1.195-.262-1.1-.802-.168-.083-.16-.28-.157-.462-.247.017-.387-.192-.683-.163-.274.033-.374.097-.608-.08-.007-.555-.983.04-1.128-.485-.19-.026-.997-.438-.53-.655 0 .002.453.088.488.094.18.032.37.12.535-.013-.256-.337-1.005-.09-.98-.616.25-.034.46.032.7.033.253 0 .373-.084.598.042.07-.043.184-.154.226-.227-.182-.122-.396-.13-.587-.24-.185-.105-.352-.328-.558-.417-.038.044-.077.062-.108.097-.005-.042-.013-.09-.013-.132m5.694 3.452c.073 0 .254.242.31-.008-.016-.332.04-.538.267-.805.15.163.36.12.46-.075m1.615.425c-.022.16.217.463.396.497.01.002.02.004.028.004M332.902 36.577c2.003 0 2.146.602 6.515-.855 4.37-1.456 20.01-6.182 21.822-6.546 1.817-.364 7.28-2.367 8.01-2.548.727-.183 2.713-1.64 3.077-2.186s2.367-.363 3.823-1.092c1.456-.72 4.19-1.084 6.364-1.995 2.186-.91 4.55.364 5.09.91.545.54 1.64-.545 2.366 0 .73.54 2.002 2.724 3.095 2.724s4.907 2.365 7.093 2.73c2.185.363 10.187 3.27 12.182 2.904 2.002-.364 2.557.91 5.817.728 3.276-.182 14.365.91 16.55.546 2.186-.364 6.91-.183 8.367-.912 1.457-.728 4.812-1.693 6-2.176.602-.246 1.17 1.726 2.185 1.812 1.63.143 1.375 2.216 3.386 2.397 1.994.183.262.39 1.71.206 1.456-.19 1.107-.11 1.662 0 .515.104.292-.237 1.202-.237m-249.462 4.925c1.64-.712 3.586-.198 7.235.53 3.633.73 6.538 1.456 7.63 1.456 1.084 0 1.45 1.46 2.36 1.27.91-.174 4.194-.72 5.104-.356.895.356 3.443.73 4.535.356 1.092-.357 3.46.553 4.188.37.72-.182 3.45.364 5.09.183 1.638-.182 1.273-.91 5.46.364 0 0 7.085-2.002 9.096-2.002 1.993 0 5.27-1.092 6.174-1.274.91-.18 9.728.556 11.374-.353M119.5 41.903c1.82 0 11.098-1.456 12.555-1.82 1.456-.363 10.654-.53 12.838-.71m-67.763 5.08c1.275.363 2.914-.547 4.552-.547 1.63 0 5.27 0 6.364-.182s3.475-.23 4.385-.412" fill="none" stroke="#fff" stroke-width=".3" stroke-miterlimit="10"/>
    <g fill="none" stroke="#fff" stroke-width=".3" stroke-miterlimit="10">
        <path d="M1.7 24.128h20.015m-19.755.466h19.315m-19.25.776h19.25m-19.755.483h20.196M1.96 24.107l9.658-1.747m0 0l9.657 1.747m-19.315.487v.775m19.315-.776v.775M1.96 24.593l-.218-.466-.01-.02m.254 1.227l-.004.007-.017.03-.266.444m19.557-1.183l.018-.04.207-.447m-.25 1.202l.013.02.133.225.145.242m-20.007-.02l-.016.024-.567.755m21.307.04l-.03-.04-.37-.495-.184-.247M.84 26.596h20.436m0 0v1.414m.154 0H1.814m.146-1.376v1.414m19.45.202H1.793m.02-.24v.24m19.617-.24v.24m-.155 0v10.42M1.96 28.25v10.423m15.505 0h3.956m-8.642 0h2.324m-7.072 0h2.382m-8.6 0h3.856M10.404 28.67h2.363v3.608h-2.363zm-4.747 0h2.366v3.608H5.657zm9.435 0h2.364v3.608h-2.364zm-4.342.294h1.632v1.12H10.75zm0 1.482h1.632v1.266H10.75zm4.69-1.482h1.63v1.12h-1.63zm0 1.482h1.63v1.266h-1.63zM6.016 28.99h1.63v1.117h-1.63zm0 1.484h1.63v1.265h-1.63zm6.762 8.2h-2.366v-3.61h2.366zm-7.11-3.61H8.03v3.608H5.667zm9.434 0h2.363v3.608h-2.363zm-4.342.293h1.63v1.117h-1.63zm0 1.483h1.63v1.264h-1.63zm4.69-1.483h1.63v1.117h-1.63zm0 1.483h1.63v1.264h-1.63zm-9.426-1.455h1.632V36.5H6.024zm0 1.485h1.632v1.264H6.024zM1.95 38.616l-.042.057-.542.723m20.574.037l-.028-.037-.35-.468-.19-.255-.014-.02m-20.08.743H8.03m-.007-.146c1.76 0 1.566-.577 3.542-.577s2.388.578 3.537.578m-7.122.796h.05c1.707-.01 1.54-.576 3.497-.576 1.975 0 2.385.576 3.535.576m-7.04-.796v.796m7.08-.796v.796m.025-.65h6.9m-20.067 0v7.775m0-6.782h6.07m0 0v-.342m7.072 0v.342m0 0h6.13m0 6.67v-7.625M5.65 41.928h2.36v3.61H5.65zm.355.324h1.63v1.117h-1.63zm0 1.484h1.63V45h-1.63zm9.065-1.996h2.368v3.61H15.07zm.364.323h1.627v1.117h-1.625zm0 1.485h1.627v1.263h-1.625zM9.002 40.43v6.627m0-6.627h5.3m0 0v6.627M13.295 42.514v3.343H9.953V41.15h3.343v1.102zm-3.343-.262h3.343m0 .262H11.83m0 0v3.343m-.308 0v-3.343m0 0h-1.57m11.415-16.92H56.8m-34.96.506h34.52m-35.085.496H55.8m-34.567.476H56.8m-35.567.664H56.8m-35.567 1.456H56.8M22.948 29.698h1.96v3.324h-1.96zm.317.385h1.328v.997h-1.328zm0 1.277h1.328v1.22h-1.328zm3.352-1.662h1.96v3.324h-1.96zm.317.385h1.328v.997h-1.328zm0 1.277h1.328v1.22h-1.328zm-3.986 7.568v-3.322h1.96v3.322M23.265 35.99h1.328v.997h-1.328zm0 1.277h1.328v1.22h-1.328zm3.352 1.66v-3.32h1.962v3.32M26.934 35.99h1.328v.997h-1.328zm0 1.277h1.328v1.22h-1.328zm3.39-7.57h1.96v3.325h-1.96zm.316.386h1.328v.997H30.64zm0 1.277h1.328v1.22H30.64zm3.353-1.662h1.96v3.324h-1.96zm.317.385h1.327v.997H34.31zm0 1.277h1.327v1.22H34.31zm-4.004 7.568v-3.322h1.96v3.322h-.682M30.622 35.99h1.33v.997h-1.33zm0 1.277h1.33v1.218h-1.33zm3.388 1.66v-3.32h1.962v3.32M34.327 35.99h1.328v.997h-1.328zm0 1.277h1.328v1.22h-1.328zm-12.764 1.66h10.02m-10.35.72h10.35m-10.35.74h10.35M22.948 41.776h1.96v3.322h-1.96zm.317.382h1.328v1h-1.328zm0 1.28h1.328v1.217h-1.328zm3.352-1.662h1.96v3.322h-1.96zm.317.382h1.328v1h-1.328zm0 1.28h1.328v1.217h-1.328zm3.39-1.662h1.96v3.322h-1.96zm.316.382h1.328v1H30.64zm0 1.28h1.328v1.217H30.64zm.944-4.042l.75-.3.422-.168m11.388 0H45.4m-5.366 0h2.15m-9.428 0h5.32m-6.492.468H46.57m-1.678.822h1.68m-11.287 0h7.584m-11.286 0h1.676m-1.676-.172v-.65m0 .992v-.342m3.7 5.298v.646H33.26v-5.77h2.025v1.314m0 1.81v.224m41.17-19.44H56.143m20.05.466h-19.31m19.248.776H56.88m19.754.483H56.44m19.753-1.746l-9.657-1.747m0 0l-9.654 1.747m19.31.487v.775m-19.31-.776v.775m19.31-.776l.22-.466.01-.02m-.254 1.227l.004.007.017.03.265.444M56.9 24.633l-.018-.04-.208-.447m.248 1.202l-.01.02-.135.225-.144.242m20.005-.02l.016.024.567.755m-21.302.04l.028-.04.37-.495.183-.247m20.812.743H55.8m1.082 0v1.414m-.162 0h19.62m-.147-1.376v1.414m-19.445.202h19.614m-.022-.24v.24m-19.62-.24v.24m.162 0v10.42m19.31-10.42v10.423m-15.502 0h-3.957m8.647 0h-2.33m7.074 0h-2.38m8.596 0h-3.852M65.39 28.67h2.36v3.608h-2.36zm4.742 0h2.366v3.608h-2.366zm-9.432 0h2.362v3.608H60.7zm5.074.294h1.63v1.12h-1.63zm0 1.482h1.63v1.266h-1.63zm-4.69-1.482h1.63v1.12h-1.63zm0 1.482h1.63v1.266h-1.63zm9.424-1.456h1.63v1.117h-1.63zm0 1.484h1.63v1.265h-1.63zm-5.128 8.2h2.363v-3.61H65.38zm4.744-3.61h2.364v3.608h-2.364zm-9.434 0h2.362v3.608H60.69zm5.074.293h1.63v1.117h-1.63zm0 1.483h1.63v1.264h-1.63zm-4.69-1.483h1.63v1.117h-1.63zm0 1.483h1.63v1.264h-1.63zm9.428-1.455h1.627V36.5H70.5zm0 1.485h1.627v1.264H70.5zm5.702 1.746l.042.057.542.723m-20.57.037l.028-.037.348-.468.19-.255.013-.02m20.083.743h-6.757m.01-.146c-1.76 0-1.57-.577-3.543-.577-1.976 0-2.385.578-3.538.578m7.122.796h-.052c-1.704-.01-1.537-.576-3.493-.576-1.978 0-2.388.576-3.538.576m7.04-.796v.796m-7.08-.796v.796m-.022-.65h-6.9m20.063 0v7.775m0-6.782h-6.07m0 0v-.342m-7.07 0v.342m0 0h-6.13m0 6.67v-7.625M70.142 41.928h2.364v3.61h-2.364zm.378.324h1.63v1.117h-1.63zm0 1.484h1.63V45h-1.63zm-9.8-1.996h2.36v3.613h-2.36zm.37.323h1.633v1.117H61.09zm0 1.485h1.633v1.263H61.09zm8.066-3.118v6.627m0-6.627h-5.3m0 0v6.627M64.86 42.514v3.343h3.343V41.15H64.86v1.102zm3.343-.262H64.86m0 .262h1.463m0 0v3.343m.313 0v-3.343m0 0h1.567M53.246 29.698h1.96v3.324h-1.96zm.316.385h1.33v.997h-1.33zm0 1.277h1.33v1.22h-1.33zm-3.986-1.662h1.96v3.324h-1.96zm.317.385h1.328v.997h-1.326zm0 1.277h1.328v1.22h-1.326zm5.313 7.568v-3.322h-1.96v3.322M53.562 35.99h1.33v.997h-1.33zm0 1.277h1.33v1.218h-1.33zm-2.025 1.66v-3.32h-1.96v3.32M49.893 35.99h1.328v.997h-1.326zm0 1.277h1.328v1.218h-1.326zm-4.023-7.57h1.962v3.325H45.87zm.318.386h1.328v.997h-1.328zm0 1.277h1.328v1.22h-1.328zM42.2 29.698h1.962v3.324h-1.96zm.317.385h1.328v.997h-1.328zm0 1.277h1.328v1.22h-1.328zm5.333 7.568v-3.322h-1.96v3.322h.68M46.205 35.99h1.33v.997h-1.33zm0 1.277h1.33v1.218h-1.33zm-4.022-1.66h1.96v3.32h-1.96zm.317.383h1.328v.997h-1.33zm0 1.277h1.328v1.218h-1.33zm-4.425-1.66h1.96v3.32h-1.96zm.317.383h1.33v.997h-1.33zm0 1.277h1.33v1.218h-1.33zm-.317-7.57h1.96v3.325h-1.96zm.317.386h1.33v.997h-1.33zm0 1.277h1.33v1.22h-1.33zm18.203 7.568H46.568m10.354.72h-10.35m10.35.74h-10.35M53.246 41.776h1.96v3.322h-1.96zm.316.382h1.33v1h-1.33zm0 1.28h1.33v1.217h-1.33zm-3.986-1.662h1.96v3.322h-1.96zm.317.382h1.328v1h-1.326zm0 1.28h1.328v1.217h-1.326zm-4.023-1.662h1.962v3.322H45.87zm.318.382h1.328v1h-1.328zm0 1.28h1.328v1.217h-1.328zm.382-4.042l-.748-.3-.422-.168m1.17 1.118v-.65m0 .992v-.342m-3.7 5.294v.65h2.02v-5.77h-2.02v1.32m0 1.81v.215m-9.61-8.37h11.632m-12.136-.262H45.4m-12.622-.288h12.644m-12.666.288v-.288m12.644.288v-.288m-.508.55v-.26m-11.632.26v-.26m3.725 6.605h5.247m-6.947 0h.876m2.916 0v4.042M37.26 41.54v4.042m3.59-4.042v4.042M35.925 41.54v1.804h-.64V41.53h.64zm.235 0h.825v1.8h-.824zm-.875 2.028h.64v1.776h-.64zm.875 0h.825v1.776h-.824zm-.875 2.014h7.587M37.598 41.885h1.117v1.396h-1.117zm0 1.83h1.117v1.393h-1.117zm1.804-1.83h1.11v1.396h-1.11zm0 1.83h1.11v1.393h-1.11zm2.828-2.175h.64v1.81h-.64zm-1.094.003h.822v1.803h-.822zm1.094 2.022h.64v1.775h-.64zm-1.094 0h.822v1.775h-.822zm8.832 3.492h26.34m-74.46 0H28.23m4.97-2.43h1.65v2.43M33.2 45.84v-1.19m1.648 2.407h-1.65m11.8-2.407v1.192m-1.648-1.215h1.648m-1.648 2.43V44.65m1.648 2.407h-1.634M28.23 46.08v.977h4.97v-.976m11.798 0v.977h4.97v-.976M44.998 45.842h4.97v.24h-4.97zM28.23 45.84h4.97v.24h-4.97zm6.618.84v.377h8.516v-.378m0-.006h-8.516"/>
        <path d="M43.364 46.674v-.378h-8.516v.383h8.516zm0-.684v-.08h-8.516v.384h8.516zm-8.516-1.363v-.215H33.2v.24h1.647zm10.15 0v-.215H43.35v.24h1.648z"/>
    </g>
    <path fill="none" stroke="#fff" stroke-width=".3" stroke-miterlimit="10" d="M337.168 14.95c-.05.195-.05.604-.085.78-.027.147.02.45-.037.63-.112-.175-.303-.337-.365-.533-.192.23.02.375.07.656.098.097.09.066.1.222-.223-.01-.423-.15-.6-.27-.03.187.14.497.284.602.012.054-.01.103.006.155.033.015.302.053.334.072.178.45-.735-.174-.854-.287-.04.154.485.706.632.75.045.14.24.34.17.446-.1.148-.82-.398-.927-.45.024.095.335.74.69 1.11 0 .183.514.396.33.455-.177.057-.48.01-.59-.113-.242-.277-.44-.373-.678-.594-.172-.157-.517-.222-.648-.434-.084-.132.26.605.17.485-.076.2.43.31.524.508.153.324.07.47.233.727.196.314.5.178.767.48.19.222-.15.59-.238.905-.272-.018-.376-.35-.623-.456-.276-.12-.366-.024-.6-.25-.326.223.122.472.28.637.213.218.272.246.334.586.03.003.077-.02.11-.025.17.14.37.234.27.515-.408-.006-.69.026-1.04-.092-.04.183.93.94 1.117.954 0 .045-.476.27-.475.312-.21-.084.696.386.534.387-.093 0-.772-.01-.873-.01-.06 0-.47-.188-.543-.19-.51-.027-.875.067-1.222-.15-.26.415.954.475 1.194.624.34.218.147.02.365.256.272.295.995.294 1.252.59-.342.13-1.16.135-1.784-.06 0 0 .886.773 1.148.76.098.72-1.266.903-1.8.825-.774-.113-1.38-.507-2.088-.8.376.985 1.535.88 2.29 1.32.678.395.013.377-.376.444-.58.104-1.103.26-1.705.18-.45-.06-.905-.103-1.36-.17-.923-.224.317.245-.47.425.32.35 1.49-.02.56.56 1.147-.21 1.1.105 1.724.14-.894.386.08.57.578.693.24.06 1.158.66 1.066.78-.274.36-1.157-.16-1.5.202.775.088 1.95.532 2.713.247-.107 1.09-1.97 1.02-2.68 1.275.323.19.387.202.735.246.256.032.395.12.668.177.507.104 1.062-.095 1.545.227-.146.356-.98.725-1.338.566-.23.318.31.45.536.585.19.112.238.197.48.217.177.018.392-.14.575-.05.45.224-.457.19-.215.528.063.086.727.226.85.23-.028-.04-.06-.093-.088-.137.23.034.46-.068.687-.003.182.053.243.266.458.316-.023-.048-.06.003-.05 0 .033-.06.11-.108.138-.15.175.304.104.4.084.74-.027.463.082.314-.007.754-.104.534.04.446-.057.987-.06.326-.012.4.12.684.486.325-.182.234.545.15.725-.085.355-.692.355-.692s.114-.366-.013-1.11c-.072-.422-.075-.923.123-1.318.285.152.68.002.927-.175-.192 0-.522-.32-.638-.524.014-.014.095-.042.12-.055-.097-.27.143-.29.36-.307.234-.022.352.055.63-.008.436-.097.94-.193 1.325-.388-.385-.21-.566-.05-.812-.4-.086-.13-.077-.207-.207-.335-.105-.106-.226-.207-.343-.268.92 0 2.174.31 2.937-.38-.244-.037-.464-.183-.684-.216-.25-.04-.49.02-.756-.062-.19-.062-.515-.118-.677-.202-.22-.112-.32-.356-.564-.447.447.137 1.48.04 1.887-.204.702-.417-.582-.367-.774-.86.81-.15 1.562-.58 2.29-.984.688-.38 1.11-.997 1.646-1.543-.417.268-1.08.272-1.56.243-.385-.022-1.27.047-1.545-.217.253-.093.445-.256.64-.41-.832.02-1.524-.114-2.287-.406.324-.102 1.066-.146 1.156-.516-.7-.327-1.322.064-1.985-.42.447-.257 1.48-.38 1.72-.866-.805-.094-1.364-.03-2.118-.417.358-.065 1.104-.053 1.357-.304-.384-.264-1.596-.347-.95-.753.364-.23.95-.488 1.24-.84-.014-.012-1.2.26-1.207.247-.36.14-.796.118-1.266-.073-.374-.15 1.02-.45.657-.604-.34-.145-.657-.25-.926-.24.286-.45-.38-.722-.134-1.12.305-.49.85-.083.703-.475.312-.243.574-.34.75-.67.098-.184-.992.38-.847.23-.328.1-.102.392-.754-.004-.188-.113.857-.762 1.008-.933.177-.206.333-.312.39-.572-.014-.016-.64.336-.654.32-.478.238-.768-.266-1.32-.355.46-.41.59-.602.687-.912-.185.15-.455.546-.702.514-.033-.394.517-.59.454-.965-.16.074-.443.364-.62.4-.055-.228.32-.447.396-.69.084-.273-.356.138-.312-.138-.165.13.36-.673.198-.517-.102.098-.312.184-.432.263.022-.174-.085-.398.01-.63.054-.174.02-.498-.113-.646-.08.043-.116.136-.088.085M42.976 47.572c5.254.017 12.835 1.996 16.743 3.227.146.043 19.852.026 44.862.007l.57-2.743 1.89.028.8 2.713c17.058-.015 36.225-.03 53.204-.04l.656-2.844 2.498.014.977 2.887c24.487-.01 42.827 0 42.827 0l94.135.136 1.6-6.646 3.477-.034 1.53 6.69 122.717.174.494 1.09-222.847-.456s-145.95.002-145.68.086c25.72 7.842 43.398 23.707 43.398 23.707l-4.296.642C80.26 59.196 58.234 49.273 40.76 49.273h-2.87c-13.807 0-30.746 4.722-37.89 7.84l.05-3.312c16.48-5.945 35.7-6.23 35.7-6.23"/>
    <g fill="none" stroke="#fff" stroke-width=".3">
        <path stroke-linecap="round" stroke-linejoin="round" d="M144.893 30.113h15.373v17.405h-15.373zm15.377 3.1h5.53V47.52h-5.53zm5.524-3.1h9.7v17.405h-9.7zm9.7 3.1h16.756V47.52h-16.757zm16.756-6.108h17.505V47.52H192.25zm-47.357 3.008l-.774-.77m16.146.77l.77-.77m4.758.77l-.773-.77m27.17-2.238l-.776-.772m18.278.772l.772-.772m-66.344 3.01h16.917m30.377-3.01h19.05m-50.198 6.084h5.528m-21.674-3.074l8.457-2.238m0 0l8.46 2.238m15.21 0l-.77.77m-10.457-.77h11.226m-.753 3.074h16.694m-27.167-3.074l5.616-2.238m0 0l5.61 2.238m15.072-3.01l9.62-2.238m9.526 2.238l-9.525-2.238M175.475 44.157h34.28v3.36h-34.28zm16.775-5.624h17.44v.66h-17.44zm-26.456 3.05h2.51v.656h-2.51zm-20.91-.01l2.464.01v.656l-2.45-.007zm54.306-9.156h3.626v6.116h-3.626zm.975 8.567h1.68v2.99h-1.68zm.098 2.152h1.485v.837h-1.485zm-2.637-2.152h1.682v2.99h-1.682zm.098 2.152h1.49v.837h-1.49zm4.89-2.152h1.68v2.99h-1.68zm.1 2.152h1.486v.837h-1.487zm-8.528-2.152h1.68v2.99h-1.68zm.097 2.152h1.487v.837h-1.487zm11.902-2.152h1.68v2.99h-1.68zm.092 2.152h1.49v.837h-1.49zm-7.087-10.72s.11-1.673 1.817-1.673c1.706 0 1.81 1.674 1.81 1.674M177.526 40.984h1.68v2.99h-1.68zm.096 2.152h1.49v.837h-1.49zm2.218-2.152h1.68v2.99h-1.68zm.096 2.152h1.488v.837h-1.488zM183 40.984h1.683v2.99H183zm.094 2.152h1.492v.837h-1.492zm3.08-2.152h1.678v2.99h-1.677zm.1 2.152h1.484v.837h-1.485zm2.21-2.152h1.68v2.99h-1.68zm.096 2.152h1.49v.837h-1.49zm-11.058-7.45h1.68v2.23h-1.68zm.094 1.394h1.488v.836h-1.488zm2.217-1.395h1.68v2.23h-1.68zm.095 1.395h1.486v.836h-1.486zm3.065-1.395h1.68v2.23h-1.68zm.1 1.395h1.484v.836h-1.485zm3.074-1.395h1.68v2.23h-1.68zm.098 1.395h1.488v.836h-1.488zm2.215-1.395h1.677v2.23h-1.677zm.095 1.395h1.49v.836h-1.49zm-17.45 3.904h1.68v2.99h-1.68zm.093 2.152h1.487v.837h-1.487zm-2.736-2.152h1.68v2.99h-1.68zm.098 2.152h1.486v.837h-1.485zm4.402-1.554h2.512v.657h-2.512zm-2.667 0h.643v.657h-.643zm-4.52 4.165h9.68v1.77h-9.68zm-20.902 0h15.373v1.77h-15.373zm8.23-5h1.68v2.986h-1.68zm.095 2.15h1.49v.837h-1.49zm-2.854-2.15h1.68v2.986h-1.68zm.096 2.15h1.487v.837h-1.488zm5.477-2.15h1.68v2.986h-1.68zm.096 2.15h1.487v.837h-1.487zm-8.493-2.15h1.68v2.986h-1.68zm.095 2.15h1.488v.837h-1.488zm5.488-9.997h1.68v2.99h-1.68zm.095 2.152h1.49v.84h-1.49zm-2.854-2.152h1.68v2.99h-1.68zm.096 2.152h1.487v.84h-1.488zm5.477-2.152h1.68v2.99h-1.68zm.096 2.152h1.487v.84h-1.487zM147.54 32.9h1.68v2.99h-1.68zm.097 2.06h1.488v.837h-1.488zm23.476-2.06h1.68v2.99h-1.68zm.097 2.152h1.49v.84h-1.49zm-2.738-2.152h1.682v2.99h-1.682zm.098 2.152h1.488v.84h-1.488zm-4.386 11.39h-2.273l-.01-4.53h2.27zm-6.387-4.86h2.47v.657h-2.47zm-8.415-.01l.79.01v.657l-.79-.008zm5.586.01h.787v.657h-.787zm-2.773 0h.762v.657h-.762zm8.07-1.292h5.53v.457h-5.53zm0 5.974h5.53m-5.53-4.354h5.53m0-1.163h-5.53m0 0h1.123v1.16h-1.122m5.547 0h-1.078v-1.16h1.078M162.445 40.747h1.165v1.16h-1.165zm-.16 1.493h1.497v3.507h-1.498zm-.385 1.75h-1.63m3.9 0h1.624m-4.037-3.7v-7.077h2.6v7.076m-4.087-1.757h5.524m0-1.783h-5.524m0-1.823h5.53m0-1.714h-5.53"/>
        <path stroke-miterlimit="10" d="M200.11 38.533s-.01-6.02 0-6.117c.01-.097.01-.884.893-.884v-.788m.917 7.79s.008-6.036 0-6.118c-.008-.08-.02-.884-.917-.884m-1.813.884h3.628m-2.438-.676l-.65-.52m1.904.52l.643-.52m-3.087 4.255h3.628m-3.628-1.627h3.628m-3.628 3.122h3.628"/>
    </g>
    <g fill="none">
        <path stroke="#fff" stroke-width=".3" stroke-miterlimit="10" d="M278 43.318h54.902m-27.452 0v-3.74M278 43.318V25.193m0 0h9.01m-9.01 0v-.632m0 0h9.01m45.892 18.758V24.56m0 0h-9.01m-.002 18.758v-19.04s-14.303-.377-18.437-.377c-4.136 0-18.44.378-18.44.378v19.04m39.88-18.125v18.125m3.004-18.125v18.125m3.005-18.125h-9.01m-.002.96h9.012m-54.902 0h9.01M278 28.36h9.01m36.88 0h9.012m0 3.004h-9.01m-36.882 0H278m45.89 2.206h9.012m-54.902 0h9.01m36.88 3.007h9.012m0 1.335h-9.01m-36.882 0H278m9.01-1.335H278m3-11.384v18.125m3.005 0V25.193m3.005 12.18h36.88m0-1.08h-36.88m36.88 0l.69-.687m0 0h-38.257m.687.687l-.687-.687m.345.342h37.567m-37.225 2.505h36.88M304.752 32.905h1.396v2.7h-1.396zm0-4.862h1.396v2.7h-1.396zm-.382 2.7h2.164v2.162h-2.165zm1.623 1.08l-.544.542-.545-.543.544-.543zm-1.24 2.434h1.395m-1.396-4.865h1.396M299.873 32.905h1.396v2.7h-1.398zm-.386-2.162h2.165v2.162h-2.165zm1.625 1.085l-.546.544-.542-.544.546-.544zm-1.24 2.43h1.398M299.873 28.043h1.396v2.7h-1.398zm0 1.35h1.397M309.634 32.905h1.396v2.7h-1.396zm0-4.862h1.396v2.7h-1.396zm-.384 2.7h2.165v2.162h-2.165zm1.624 1.08l-.544.543-.542-.542.544-.544zm-1.24 2.434h1.396m-1.396-4.865h1.396M294.99 32.905h1.397v2.7h-1.396zm0-4.862h1.397v2.7h-1.396zm-.382 2.7h2.165v2.162h-2.165zm1.625 1.08l-.544.543-.546-.544.544-.543zm-1.243 2.434h1.398m-1.398-4.865h1.398M290.11 32.905h1.396v2.7h-1.396zm0-4.862h1.396v2.7h-1.396zm-.385 2.7h2.165v2.162h-2.165zm1.635 1.092l-.546.543-.542-.543.544-.544zm-1.25 2.422h1.397m-1.397-4.865h1.397M314.515 32.905h1.396v2.7h-1.394zm0-4.862h1.396v2.7h-1.394zm-.385 2.7h2.165v2.162h-2.165zm1.624 1.08l-.544.544-.543-.543.544-.544zm-1.24 2.434h1.397m-1.395-4.865h1.396M319.352 32.905h1.398v2.7h-1.398zm0-4.862h1.398v2.7h-1.398zm-.382 2.7h2.164v2.162h-2.165zm1.612 1.067l-.544.545-.543-.543.543-.544zm-1.23 2.447h1.398m-1.398-4.865h1.398M319.352 38.453h1.398v2.697h-1.398zm0 1.347h1.398M314.515 38.453h1.396v2.697h-1.394zm0 1.347h1.396M290.11 38.453h1.396v2.697h-1.396zm0 1.347h1.397M294.99 38.453h1.397v2.697h-1.396zm0 1.347h1.398m0-1.347l.623-1.08m-5.503 1.08l.622-1.08m23.78 1.08l.624-1.08m4.216 1.08l.623-1.08m-2.02 1.08l-.624-1.08m-4.215 1.08l-.624-1.08m-18.9 1.08l-.62-1.08m-4.26 1.08l-.625-1.08m10.388 1.08l-.623-1.08m11.78 1.08l.622-1.08m-8.735 1.08v4.865M299.873 38.453h1.396v2.697h-1.398zm0 1.347h1.397M309.634 38.453h1.396v2.697h-1.396zm0 1.347h1.396m-9.76-1.347l.622-1.08m7.742 1.08l-.622-1.08m-6.095 1.08l-.622-1.08m5.69 1.08l.623-1.08m-.623 1.08v4.865m-5.068-3.74h5.068m-4.418-1.125v4.865m0-5.946v1.08m3.768 0v4.866m0-5.946v1.08M304.016 41.783h.986v.986h-.986zm1.884 0h.984v.986h-.983zm-1.884-1.746h.986v1.173h-.986zm1.884 0h.984v1.173h-.983zM286.208 25.35l.803.804s14.273-.4 18.44-.4c4.174 0 18.44.4 18.44.4l.806-.803s-15.062-.473-19.244-.473-19.242.475-19.242.475zm4.264 13.103v-1.08m.67 1.08v-1.08m4.213 1.08v-1.08m.67 1.08v-1.08m4.208 1.08v-1.08m.674 1.08v-1.08m9.09 1.08v-1.08m.67 1.08v-1.08m4.21 1.08v-1.08m.67 1.08v-1.08m4.17 1.08v-1.08m.67 1.08v-1.08M316.43 41.446h2.612v1.48h-2.613zm.405 1.48h.313v.877h-.313zm1.485 0h.313v.877h-.312zm-31.31-15.272s14.316-.422 18.44-.422c4.127 0 18.44.422 18.44.422m-36.88-.632s14.272-.444 18.44-.444c4.173 0 18.44.444 18.44.444m0-3.402s-14.303-.424-18.437-.424c-4.136 0-18.44.424-18.44.424m-.003 0v.656m36.88-.656v.656"/>
        <path d="M316.526 41.732h2.43v.763h-2.43z"/>
        <text transform="translate(317.014 41.997)" stroke="#fff" stroke-width=".3" stroke-miterlimit="10" font-family="'MyriadPro-Regular'" font-size=".376">
            MONROE
        </text>
        <text transform="translate(317.326 42.447)" stroke="#fff" stroke-width=".3" stroke-miterlimit="10" font-family="'MyriadPro-Regular'" font-size=".376">
            HALL
        </text>
    </g>
    <g fill="none" stroke="#fff" stroke-width=".3" stroke-miterlimit="10">
        <path d="M120.22 35.82v12.082m0-12.082h-18.296M120.22 47.9h-9.607m9.607 0v.935m-18.295 0h-7.558m25.853 0h-9.936m.33 0V35.82m-.33 6.696v5.042m0-11.738v5.028m9.956-5.048l.504-.54m0 0H91.488m28.092 0l-7.36-1.637m0 0h-12.207M120.143 36.134c0 .11-.068.2-.154.2h-.25c-.086 0-.156-.09-.156-.2 0-.054.018-.104.045-.14.03-.036.065-.06.11-.06h.25c.083 0 .152.09.152.2zm0 .508c0 .11-.128.197-.287.197h-.47c-.16 0-.288-.09-.288-.2 0-.055.032-.103.084-.14.053-.036.125-.06.205-.06h.47c.158 0 .286.09.286.2zm0 .523c0 .108-.068.197-.154.197h-.25c-.086 0-.156-.09-.156-.197 0-.056.018-.105.045-.143.03-.036.065-.06.11-.06h.25c.083.003.152.092.152.203zm0 .508c0 .107-.128.198-.287.198h-.47c-.16 0-.288-.09-.288-.196 0-.054.032-.104.084-.14.053-.036.125-.06.205-.06h.47c.158 0 .286.09.286.2zm-.035.55c0 .11-.07.2-.155.2h-.25c-.085 0-.153-.09-.153-.2 0-.056.017-.105.045-.14.027-.036.066-.06.108-.06h.25c.084 0 .155.09.155.2zm0 .523c0 .11-.128.198-.29.198h-.468c-.157 0-.287-.09-.287-.198 0-.057.032-.105.084-.143.052-.036.124-.058.203-.058h.47c.16.002.288.09.288.2zm0 .537c0 .11-.07.2-.155.2h-.25c-.085 0-.153-.09-.153-.2 0-.054.017-.104.045-.14.027-.035.066-.058.108-.058h.25c.084 0 .155.09.155.198zm0 .517c0 .11-.128.198-.29.198h-.468c-.157 0-.287-.088-.287-.2 0-.054.032-.103.084-.14.052-.035.124-.058.203-.058h.47c.16 0 .288.09.288.2zm.035.54c0 .11-.068.2-.154.2h-.25c-.086 0-.156-.09-.156-.2 0-.055.018-.105.045-.142.03-.036.065-.06.11-.06h.25c.083.002.152.092.152.202zm0 .508c0 .11-.128.198-.287.198h-.47c-.16 0-.288-.088-.288-.198 0-.056.032-.105.084-.142.053-.036.125-.06.205-.06h.47c.158.003.286.09.286.202zm0 .542c0 .107-.068.196-.154.196h-.25c-.086 0-.156-.09-.156-.197 0-.058.018-.106.045-.143.03-.035.065-.058.11-.058h.25c.083 0 .152.086.152.2zm0 .506c0 .11-.128.2-.287.2h-.47c-.16 0-.288-.09-.288-.2 0-.054.032-.104.084-.14.053-.036.125-.06.205-.06h.47c.158 0 .286.09.286.2zm-.053.552c0 .108-.07.197-.155.197h-.25c-.086 0-.156-.09-.156-.197 0-.055.016-.104.044-.142.028-.037.066-.06.11-.06h.25c.086.003.155.093.155.202zm0 .508c0 .108-.13.198-.29.198h-.468c-.16 0-.288-.09-.288-.198 0-.056.032-.104.084-.14.052-.037.124-.06.204-.06h.47c.157.002.288.09.288.2zm-.29.352h.1c.083 0 .152.09.152.198s-.07.2-.153.2h-.252c-.086 0-.155-.09-.155-.2 0-.055.018-.104.045-.14.027-.036.067-.06.11-.06h.15zm-.036.522c.16 0 .288.09.288.197 0 .11-.128.2-.288.2h-.47c-.157 0-.285-.09-.285-.2 0-.054.03-.104.08-.14.053-.035.125-.058.204-.058h.47zm0 .54h.135c.082 0 .15.09.15.197 0 .11-.07.2-.152.2h-.25c-.087 0-.156-.09-.156-.2 0-.054.018-.104.045-.14.027-.036.067-.058.11-.058h.114zm0 .515c.16 0 .288.088.288.197 0 .11-.128.198-.288.198h-.47c-.157 0-.285-.088-.285-.198 0-.055.03-.104.08-.14.053-.036.125-.058.204-.058h.47zm0 .54h.17c.087 0 .156.09.156.2s-.07.196-.155.196h-.25c-.085 0-.155-.085-.155-.195 0-.056.017-.104.045-.14.028-.037.066-.06.11-.06h.08zm.326.707c0 .11-.13.197-.29.197h-.468c-.16 0-.288-.09-.288-.2 0-.055.032-.104.084-.14.052-.036.124-.06.204-.06h.47c.157 0 .288.09.288.2zm0 .54c0 .11-.07.2-.155.2h-.25c-.086 0-.156-.09-.156-.2 0-.056.016-.104.044-.14.028-.035.066-.06.11-.06h.25c.086.002.155.09.155.2zm0 .508c0 .11-.13.198-.29.198h-.468c-.16 0-.288-.09-.288-.198 0-.055.032-.104.084-.14.052-.036.124-.06.204-.06h.47c.157.003.288.09.288.2zm-27.947 0h-.152m.153-4.224h-.152m.44 3.916v.11m0-.652v.144m0-.654v.11m0-2.776v.154m.037 1.972v.146m0-.66v.12m0-.66v.144m0-.663v.123m-.477-8.03v12.078m0-12.058h9.936M91.99 47.878h9.607m-9.607 0v.935m0 0h9.936m-.33 0V35.8m.33 6.716v5.042m0-11.758v5.047M91.99 35.8l-.502-.54m1.162 0l7.363-1.637M92.088 36.134c0 .11.07.2.155.2h.25c.086 0 .154-.09.154-.2 0-.054-.017-.104-.044-.14-.028-.036-.066-.06-.108-.06h-.25c-.087 0-.157.09-.157.2zm0 .508c0 .11.128.197.29.197h.466c.16 0 .29-.09.29-.2 0-.055-.033-.103-.085-.14-.054-.036-.127-.06-.207-.06h-.467c-.16 0-.29.09-.29.2zm0 .523c0 .108.07.197.155.197h.25c.086 0 .154-.09.154-.197 0-.056-.017-.105-.044-.143-.028-.036-.066-.06-.108-.06h-.25c-.087.003-.157.092-.157.203zm0 .508c0 .107.128.198.29.198h.466c.16 0 .29-.09.29-.196 0-.054-.033-.104-.085-.14-.054-.036-.127-.06-.207-.06h-.467c-.16 0-.29.09-.29.2zm.04.55c0 .11.066.2.152.2h.25c.087 0 .156-.09.156-.2 0-.056-.017-.105-.046-.14-.027-.036-.066-.06-.11-.06h-.25c-.087 0-.153.09-.153.2zm0 .523c0 .11.126.198.285.198h.47c.16 0 .288-.09.288-.198 0-.057-.03-.105-.082-.143-.052-.036-.125-.058-.205-.058h-.47c-.158.002-.285.09-.285.2zm0 .537c0 .11.066.2.152.2h.25c.087 0 .156-.09.156-.2 0-.054-.017-.104-.046-.14-.027-.035-.066-.058-.11-.058h-.25c-.087 0-.153.09-.153.198zm0 .517c0 .11.126.198.285.198h.47c.16 0 .288-.088.288-.2 0-.054-.03-.103-.082-.14-.052-.035-.125-.058-.205-.058h-.47c-.158 0-.285.09-.285.2zm-.04.54c0 .11.07.2.155.2h.25c.086 0 .154-.09.154-.2 0-.055-.017-.105-.044-.142-.028-.036-.066-.06-.108-.06h-.25c-.087.002-.157.092-.157.202zm0 .508c0 .11.128.198.29.198h.466c.16 0 .29-.088.29-.198 0-.056-.033-.105-.085-.142-.054-.036-.127-.06-.207-.06h-.467c-.16.003-.29.09-.29.202zm0 .542c0 .107.07.196.155.196h.25c.086 0 .154-.09.154-.197 0-.058-.017-.106-.044-.143-.028-.035-.066-.058-.108-.058h-.25c-.087 0-.157.086-.157.2zm0 .506c0 .11.128.2.29.2h.466c.16 0 .29-.09.29-.2 0-.054-.033-.104-.085-.14-.054-.036-.127-.06-.207-.06h-.467c-.16 0-.29.09-.29.2zm.055.552c0 .108.07.197.154.197h.25c.086 0 .154-.09.154-.197 0-.055-.015-.104-.043-.142-.027-.037-.065-.06-.108-.06h-.25c-.087.003-.156.093-.156.202zm0 .508c0 .108.13.198.288.198h.47c.16 0 .29-.09.29-.198 0-.056-.033-.104-.085-.14-.052-.037-.124-.06-.203-.06h-.47c-.158.002-.287.09-.287.2zm.287.352h-.098c-.083 0-.15.09-.15.198s.067.2.15.2h.253c.085 0 .153-.09.153-.2 0-.055-.017-.104-.045-.14-.027-.036-.065-.06-.108-.06h-.154zm.037.522c-.16 0-.287.09-.287.197 0 .11.128.2.287.2h.47c.158 0 .287-.09.287-.2 0-.054-.032-.104-.084-.14-.052-.035-.124-.058-.203-.058h-.47zm0 .54h-.135c-.083 0-.15.09-.15.197 0 .11.067.2.15.2h.253c.085 0 .153-.09.153-.2 0-.054-.017-.104-.045-.14-.027-.036-.065-.058-.108-.058h-.118zm0 .515c-.16 0-.287.088-.287.197 0 .11.128.198.287.198h.47c.158 0 .287-.088.287-.198 0-.055-.032-.104-.084-.14-.052-.036-.124-.058-.203-.058h-.47zm0 .54h-.17c-.085 0-.154.09-.154.2s.07.196.154.196h.252c.084 0 .152-.085.152-.195 0-.056-.016-.104-.044-.14-.027-.037-.065-.06-.108-.06h-.08zm-.037.508c-.158 0-.287.088-.287.198 0 .11.13.2.288.2h.47c.16 0 .29-.09.29-.198 0-.056-.033-.104-.085-.14-.052-.036-.124-.06-.203-.06l-.47.003zm0 .54h-.133c-.085 0-.154.09-.154.198s.07.2.154.2h.252c.084 0 .152-.09.152-.2 0-.054-.016-.102-.044-.14-.027-.033-.065-.057-.108-.057l-.117.002zm-.287.707c0 .11.13.198.288.198h.47c.16 0 .29-.09.29-.198 0-.055-.033-.104-.085-.14-.052-.036-.124-.06-.203-.06h-.47c-.158.003-.287.09-.287.2zm10.183-4.664h-.4v-1.668h8.36v1.667h-.406m-6.307 0h-.755m5.112 0h-3.69m5.148 0h-.79m0 5.043h1.687v1.277h-8.36v-1.277h1.648m.667 0h3.69M102.326 42.516h.492v4.862h-.492zm7.062 0h.492v4.862h-.492zm-5.815 0h.668v5.042h-.666zm4.357 0h.668v5.042h-.668zm-2.933.44h2.177v4.225h-2.177zm-3.072-1.91h8.36m-8.36 1.26h8.36m-8.38-.79h8.36m-8.34 6.437h8.34m-8.34.39h8.34"/>
    </g>
    <g fill="none" stroke="#fff" stroke-width=".3" stroke-miterlimit="10">
        <path d="M118.09 45.67v-2.953h-2.248v2.954m1.508-2.953v1.3h-.77V42.72m1.507 1.11h-2.247v.36M115.842 45.67h2.247v.353h-2.25zm-.196-1.48h2.62"/>
    </g>
    <g fill="none" stroke="#fff" stroke-width=".3" stroke-miterlimit="10">
        <path d="M107.217 39.79v-2.953h-2.247v3.31m1.51-3.31v1.3h-.77V36.84m1.504 1.11h-2.247v.36M107.217 39.79h-2.25v.355h2.252zm-2.44-1.48h2.62"/>
    </g>
    <g fill="none" stroke="#fff" stroke-width=".3" stroke-miterlimit="10">
        <path d="M100.674 40.098v-3.306h-2.247v3.306m1.51-3.306v1.3h-.773v-1.3m1.506 1.114h-2.245v.36M100.674 40.098l-.004-.353h-2.245v.353h.002zm-2.44-1.833h2.616"/>
    </g>
    <g fill="none" stroke="#fff" stroke-width=".3" stroke-miterlimit="10">
        <path d="M96.312 39.72v-2.95h-2.245v2.95m1.506-2.95v1.298h-.77v-1.3m1.507 1.116h-2.248v.36M94.067 39.72h2.245v.354h-2.245zm-.195-1.476h2.618"/>
    </g>
    <g fill="none" stroke="#fff" stroke-width=".3" stroke-miterlimit="10">
        <path d="M100.674 45.605v-2.952h-2.247v2.952m1.51-2.952v1.302h-.773v-1.302m1.506 1.115h-2.245v.36M98.427 45.605h2.247v.354h-2.247zm-.194-1.478h2.617"/>
    </g>
    <g fill="none" stroke="#fff" stroke-width=".3" stroke-miterlimit="10">
        <path d="M96.32 45.605V42.65h-2.247v2.955m1.512-2.955v1.306h-.772V42.65m1.505 1.118H94.07v.36M94.074 45.605h2.247v.355h-2.245zm-.194-1.478h2.62"/>
    </g>
    <g fill="none" stroke="#fff" stroke-width=".3" stroke-miterlimit="10">
        <path d="M113.81 39.845v-2.953h-2.247v2.953m1.51-2.953v1.3h-.77v-1.3m1.504 1.115h-2.247v.36M111.564 39.845h2.247v.354h-2.245zm-.194-1.48h2.618"/>
    </g>
    <g fill="none" stroke="#fff" stroke-width=".3" stroke-miterlimit="10">
        <path d="M118.153 39.893v-2.95h-2.246v2.95m1.51-2.95v1.3h-.772v-1.3m1.505 1.113h-2.247v.36M115.907 39.893h2.246v.354h-2.246zm-.194-1.477h2.618"/>
    </g>
    <g fill="none" stroke="#fff" stroke-width=".3" stroke-miterlimit="10">
        <path d="M113.81 45.67v-2.954h-2.247v2.954m1.51-2.953v1.3h-.77v-1.3m1.504 1.116h-2.247v.358M111.564 45.67h2.247v.353h-2.245zm-.194-1.48h2.618"/>
    </g>
    <path d="M138.04 40.673c.217.345.7.36.914.04.135-.208.024-.94.013-1.196-.03-.862-.06-1.72-.06-2.588 0-1.238-.525-3.3.556-4.168.614-.495 1.426-.804 2.11-1.198m-6.14.186c.796.72 1.395 1.716 2.53 1.913.188-.884.32-1.567-.237-2.315-.464-.627-.46-.324-.62-1.025m2.604.684c-.608.714-.425.226-.36 1.228.59-.21.524-.14 1-.43l.1-.06m-2.41 9.055c-.004-.042-.008-.084-.01-.126-.188-2.383.538-5.08-1.36-6.993-.405-.41-.986-.85-1.236-1.375-.11-.01-.13.223.05.675.18.45-.585.343-.585.343-.394.53-.74-.382-1.086-.53-.307-.125-.898-.052-1.264-.113-.51-.083-1.93-.422-1.775-1.294-.27-.133-.255-.45-.248-.745-.402.026-.627-.307-1.1-.26-.447.053-.605.153-.986-.13-.01-.893-1.582.06-1.817-.784-.305-.04-1.607-.707-.854-1.057 0 .002.73.143.786.15.292.056.595.19.86-.02-.41-.55-1.616-.15-1.58-.998.408-.054.748.054 1.134.054.405 0 .6-.135.964.07.113-.07.293-.25.365-.367-.3-.2-.645-.21-.953-.39-.297-.17-.572-.526-.904-.67-.055.068-.124.1-.172.154-.007-.067-.02-.144-.02-.21-.595-.26-1.79-.84-1.59-1.744.135.237.874.758 1.15.792.1-.487.667-.257.996-.172.02.085.06.147.083.23.216.044.474.006.662-.045-.02.155.078.273.08.418.334.01.827.16.807.56.27.034.91-.006 1.046-.266.154-.294-.345-.46.11-.73-.07-.612-.658-1.22-.66-1.775.797.06 2.168.46 1.73-.726-.187-.504-.542-.764.088-.992.048-.01.62-.082.71-.086.29-.008.48.05.737.11.074-.55-.086-1.606.583-1.14.49.344.44 1.06 1.1 1.087 0 0 .338-.848.85-.668.51.183.695-.33.842-.602.152-.27.278.44.665.836.313.32.47-2.125 1.15-1.557.202.174.213.973.242 1.223.07.6.258.558.575.995.25-.385-.36-.654-.116-1.067.22-.376.79-.04.94.292.053-.048.146-.09.19-.127.07.78.955.125 1.06.668.337.047.615-.165.86-.37.21.26.42.835.32 1.176.655.047.61-.33 1.072.193.254.29.615.704.763 1.07.06.146.037.45.082.633.07.293.197.466.314.73.18.4.438 1.003-.127 1.288.286.473-.094.995.077 1.5.207.62.536.77.1 1.288-.376.444-.574.542-.758 1.164-.142.49-.38.84-.967.706 0 .09-.03.208-.02.295-.067.037-.156-.007-.228.017-.067.208-.095.237-.195.18m-6.138.183c.118 0 .41.39.504-.012-.03-.54.06-.873.428-1.3.243.265.58.194.742-.117m2.602.687c-.038.257.352.747.642.8.015 0 .03.004.043.004M272.393 40.282c.202.312.645.328.836.034.122-.188.02-.86.013-1.09-.028-.787-.055-1.57-.055-2.364 0-1.128-.48-3.01.504-3.803.562-.457 1.305-.738 1.93-1.098m-5.604.173c.725.657 1.27 1.567 2.31 1.746.17-.807.29-1.43-.22-2.112-.422-.57-.42-.295-.563-.936m2.375.624c-.555.652-.39.21-.33 1.123.54-.193.48-.13.916-.396.026-.017.057-.034.088-.053m-2.2 8.267l-.01-.114c-.17-2.177.495-4.64-1.238-6.386-.37-.375-.9-.775-1.128-1.255-.104-.012-.123.202.04.613.166.414-.53.316-.53.316-.357.484-.675-.35-.992-.482-.278-.116-.817-.046-1.152-.104-.467-.077-1.764-.386-1.622-1.18-.244-.124-.234-.414-.227-.682-.368.022-.573-.283-1.007-.237-.406.045-.55.14-.898-.12-.01-.815-1.447.058-1.66-.714-.28-.04-1.468-.646-.78-.965 0 .003.666.13.72.137.268.05.542.174.786-.02-.375-.496-1.476-.135-1.444-.908.375-.048.682.048 1.038.05.37 0 .547-.124.88.062.104-.062.267-.226.335-.332-.273-.18-.59-.192-.87-.356-.272-.155-.522-.482-.827-.61-.05.062-.11.09-.158.14-.004-.062-.014-.132-.014-.192-.545-.236-1.637-.765-1.455-1.594.125.22.8.695 1.055.73.088-.45.607-.237.907-.158.02.076.057.133.077.208.2.04.434.005.603-.04-.02.14.073.246.077.382.305.008.754.145.733.51.25.032.832-.003.956-.242.142-.268-.313-.42.1-.67-.063-.555-.598-1.11-.6-1.618.727.055 1.977.414 1.58-.663-.174-.46-.5-.7.08-.907.042-.012.56-.073.646-.077.263-.006.438.05.67.1.067-.5-.08-1.467.532-1.038.447.313.403.97 1.004.992 0 0 .31-.773.773-.61.468.165.635-.305.77-.55.14-.248.256.4.61.765.282.29.424-1.94 1.046-1.425.187.16.195.89.223 1.118.064.544.235.51.524.906.227-.35-.328-.6-.104-.977.197-.34.72-.033.856.27.046-.045.13-.084.172-.116.065.716.872.117.964.61.312.044.565-.15.79-.337.19.235.382.764.29 1.073.6.042.56-.3.98.18.232.263.562.64.696.976.053.134.032.41.076.58.062.267.177.423.285.666.166.364.4.914-.116 1.174.26.433-.085.908.073 1.37.187.562.487.702.092 1.176-.346.405-.526.493-.693 1.062-.13.444-.35.767-.885.645 0 .08-.028.188-.018.27-.062.032-.145-.005-.212.018-.06.188-.085.215-.175.16m-5.602.162c.106 0 .372.355.457-.012-.026-.492.056-.793.392-1.186.223.243.527.18.678-.106m2.375.626c-.035.234.322.684.586.73l.04.002M218.497 17.508c-.052.192-.052.602-.087.775-.025.147.022.448-.035.63-.113-.177-.302-.338-.363-.533-.195.228.017.373.067.655.096.094.09.064.1.22-.226-.01-.423-.15-.6-.27-.03.187.14.494.284.6.012.052-.01.1.004.153.033.015.3.053.334.072.177.448-.73-.173-.85-.286-.042.153.48.702.626.745.044.14.242.337.17.442-.098.148-.816-.396-.92-.447.022.094.332.736.687 1.104 0 .18.51.395.327.45-.176.06-.48.01-.586-.11-.24-.275-.44-.37-.675-.592-.17-.16-.512-.223-.645-.434-.082-.13.26.604.17.482-.074.2.43.31.523.504.153.323.07.467.233.724.196.313.5.175.76.48.19.22-.147.585-.234.897-.27-.016-.373-.345-.62-.45-.275-.12-.364-.024-.598-.25-.323.223.122.472.282.635.21.216.268.242.33.582.03 0 .077-.022.11-.026.17.14.367.233.27.51-.41-.004-.69.03-1.036-.09-.04.183.923.938 1.112.95-.002.044-.475.268-.473.31-.21-.082.694.386.53.388-.09 0-.767-.014-.866-.014-.063 0-.47-.186-.542-.188-.508-.027-.872.067-1.214-.15-.26.414.95.472 1.188.622.342.216.15.02.366.254.272.293.99.292 1.245.587-.34.13-1.155.133-1.775-.06 0 0 .882.77 1.143.755.096.716-1.26.9-1.792.82-.77-.112-1.372-.503-2.076-.794.374.98 1.526.874 2.278 1.313.673.396.012.375-.374.443-.576.102-1.098.26-1.697.18-.45-.063-.902-.104-1.355-.172-.92-.22.315.246-.47.424.32.346 1.486-.02.556.558 1.147-.21 1.096.103 1.718.14-.89.382.08.565.575.688.24.06 1.154.657 1.063.776-.27.358-1.15-.16-1.492.202.773.087 1.94.53 2.7.245-.106 1.083-1.96 1.012-2.666 1.267.323.19.384.2.732.246.254.03.392.118.663.174.505.104 1.06-.095 1.54.228-.147.354-.98.72-1.333.562-.23.318.306.45.534.583.19.11.237.196.476.216.177.018.39-.14.573-.05.446.224-.455.19-.214.526.063.084.72.223.844.23-.028-.04-.06-.094-.086-.138.232.034.456-.067.685-.003.18.052.24.263.453.313-.023-.047-.06.004-.05 0 .034-.06.11-.106.14-.147.172.3.1.395.08.734-.026.462.084.313-.004.75-.106.53.04.443-.058.982-.06.322-.01.397.117.678.485.323-.18.234.543.15.72-.084.354-.69.354-.69s.113-.362-.013-1.104c-.072-.418-.074-.916.12-1.312.286.152.677.003.924-.173-.193 0-.52-.32-.635-.52.015-.014.095-.04.12-.056-.094-.27.143-.288.358-.306.235-.02.35.057.628-.005.434-.098.935-.194 1.32-.388-.383-.21-.565-.048-.81-.398-.086-.13-.077-.207-.206-.334-.105-.104-.224-.204-.34-.265.915 0 2.16.308 2.92-.376-.242-.038-.46-.184-.68-.216-.248-.04-.486.022-.75-.062-.19-.062-.513-.117-.674-.2-.22-.11-.318-.354-.562-.445.447.136 1.47.04 1.877-.203.7-.415-.58-.365-.77-.857.802-.147 1.554-.576 2.277-.98.683-.378 1.104-.99 1.64-1.534-.415.266-1.073.27-1.555.24-.38-.02-1.262.048-1.535-.216.253-.09.445-.253.636-.408-.828.02-1.516-.11-2.274-.402.32-.103 1.062-.146 1.15-.514-.697-.326-1.315.063-1.977-.42.445-.255 1.472-.377 1.71-.86-.798-.093-1.355-.032-2.106-.415.36-.065 1.1-.05 1.35-.3-.38-.263-1.585-.347-.944-.75.363-.23.946-.486 1.233-.834-.013-.013-1.19.26-1.2.246-.357.14-.79.116-1.26-.073-.37-.15 1.017-.45.656-.605-.34-.146-.656-.25-.922-.24.286-.448-.376-.717-.13-1.112.3-.49.843-.084.697-.474.314-.244.573-.34.747-.667.1-.184-.985.377-.84.228-.326.1-.1.39-.75-.004-.186-.112.854-.757 1.002-.927.175-.207.33-.31.39-.57-.016-.017-.638.334-.653.317-.475.24-.764-.263-1.314-.353.457-.408.587-.597.684-.906-.186.15-.455.543-.7.513-.033-.392.514-.587.45-.96-.157.074-.44.36-.614.398-.055-.228.32-.445.395-.688.083-.272-.355.136-.31-.138-.164.13.36-.668.197-.513-.1.097-.312.183-.43.262.024-.174-.083-.397.01-.63.055-.17.02-.493-.11-.64-.082.043-.12.134-.09.083m8.285 1.113c-.053.192-.053.602-.087.775-.027.146.02.448-.036.627-.113-.174-.303-.335-.363-.53-.196.227.017.37.066.653.098.094.092.066.1.22-.222-.01-.42-.148-.596-.27-.03.188.14.496.282.6.013.054-.01.103.006.154.034.015.3.052.334.073.177.448-.73-.174-.85-.288-.042.155.482.704.626.747.045.137.242.337.17.44-.098.15-.817-.395-.92-.446.022.094.332.735.686 1.104 0 .182.51.395.328.45-.176.06-.478.01-.585-.11-.24-.275-.44-.372-.673-.592-.17-.16-.514-.222-.646-.434-.08-.13.26.604.17.483-.073.2.43.31.523.504.154.323.07.467.234.725.195.312.498.175.76.48.19.22-.148.585-.235.9-.27-.02-.373-.35-.62-.454-.274-.12-.363-.022-.596-.25-.324.223.12.47.28.635.212.216.27.244.332.583.03 0 .077-.023.108-.027.17.14.37.233.27.51-.407-.004-.688.03-1.035-.09-.04.183.924.938 1.11.95 0 .045-.473.27-.47.31-.21-.08.693.386.53.388-.09 0-.77-.012-.867-.012-.062 0-.47-.187-.542-.19-.506-.026-.87.068-1.213-.148-.26.414.95.472 1.188.62.34.217.147.02.365.255.27.294.99.292 1.244.588-.34.128-1.155.134-1.774-.06 0 0 .88.77 1.142.755.097.718-1.26.9-1.79.822-.772-.113-1.373-.505-2.077-.795.374.98 1.526.872 2.277 1.312.674.395.012.375-.373.44-.58.104-1.1.262-1.7.18-.447-.06-.9-.103-1.353-.17-.92-.222.316.244-.47.425.32.346 1.486-.02.556.557 1.146-.21 1.095.104 1.717.14-.888.383.082.565.576.688.24.06 1.152.657 1.06.777-.27.356-1.148-.16-1.49.2.772.088 1.94.53 2.7.246-.107 1.083-1.96 1.01-2.667 1.268.32.19.38.2.73.244.254.03.392.12.662.175.506.104 1.06-.094 1.54.227-.147.355-.978.72-1.333.562-.23.317.305.45.533.582.19.11.237.196.476.217.176.016.39-.14.572-.05.447.223-.454.19-.214.525.062.085.72.225.844.23-.03-.04-.06-.094-.088-.138.232.034.456-.067.685-.002.18.052.243.264.456.314-.023-.047-.06.003-.05 0 .034-.06.11-.107.14-.148.172.303.1.396.08.735-.025.46.083.312-.004.75-.106.53.04.444-.058.982-.058.32-.01.397.118.68.486.32-.18.232.543.147.722-.083.355-.69.355-.69s.114-.363-.012-1.104c-.072-.42-.074-.917.12-1.312.287.15.677 0 .924-.174-.192.003-.52-.32-.634-.52.015-.014.095-.042.12-.055-.095-.27.143-.29.357-.306.234-.023.35.054.63-.008.432-.098.933-.193 1.318-.39-.383-.207-.563-.045-.81-.395-.086-.13-.077-.207-.205-.334-.106-.104-.225-.203-.342-.265.917-.003 2.163.308 2.92-.378-.24-.037-.46-.182-.68-.215-.247-.04-.485.02-.75-.062-.19-.062-.513-.118-.675-.2-.22-.11-.314-.355-.56-.446.448.135 1.47.04 1.878-.203.7-.416-.58-.366-.77-.857.802-.15 1.554-.577 2.277-.98.682-.377 1.104-.99 1.64-1.533-.417.267-1.073.27-1.556.242-.38-.022-1.263.046-1.534-.217.252-.093.443-.255.635-.41-.827.02-1.516-.11-2.273-.4.32-.105 1.062-.148 1.15-.516-.698-.327-1.316.063-1.978-.42.444-.254 1.472-.377 1.712-.86-.8-.093-1.357-.03-2.108-.415.358-.067 1.097-.053 1.35-.3-.38-.265-1.585-.348-.943-.75.363-.23.944-.487 1.23-.836-.01-.013-1.19.26-1.196.245-.358.14-.792.116-1.26-.074-.373-.15 1.016-.448.654-.604-.338-.144-.654-.25-.92-.24.285-.447-.378-.717-.133-1.112.303-.49.845-.083.7-.473.312-.243.57-.337.745-.666.1-.182-.986.38-.842.23-.325.1-.1.39-.75-.005-.186-.112.854-.758 1.003-.928.178-.206.334-.31.39-.568-.013-.02-.635.333-.65.315-.474.24-.764-.263-1.314-.354.456-.406.587-.597.683-.905-.186.15-.454.543-.7.51-.033-.39.513-.586.45-.96-.157.075-.44.364-.615.4-.055-.23.32-.445.396-.688.085-.27-.353.138-.307-.136-.165.13.357-.67.196-.513-.1.098-.313.183-.43.263.022-.174-.085-.398.01-.63.054-.172.02-.493-.113-.64-.08.042-.116.134-.09.082M428.5 33.164c.346.54 1.108.564 1.446.06.21-.325.034-1.482.018-1.882-.05-1.358-.092-2.71-.092-4.08 0-1.947-.828-5.19.874-6.565.966-.774 2.248-1.262 3.323-1.89m-9.673.29c1.254 1.137 2.193 2.704 3.987 3.02.296-1.395.503-2.474-.375-3.655-.734-.985-.728-.505-.977-1.613m4.104 1.077c-.96 1.133-.672.364-.566 1.942.93-.335.825-.224 1.58-.68.048-.03.098-.06.15-.096m-3.8 14.266l-.014-.194c-.3-3.753.853-8.004-2.14-11.018-.64-.65-1.556-1.342-1.95-2.167-.177-.02-.2.35.08 1.06s-.922.55-.922.55c-.62.83-1.165-.61-1.712-.84-.48-.195-1.415-.085-1.992-.183-.806-.127-3.04-.665-2.798-2.04-.422-.208-.405-.707-.388-1.17-.635.035-.992-.486-1.74-.41-.7.08-.95.24-1.55-.207-.022-1.41-2.498.1-2.867-1.238-.48-.07-2.53-1.112-1.345-1.667 0 .01 1.15.23 1.242.237.46.085.935.304 1.354-.03-.646-.86-2.546-.232-2.488-1.567.643-.09 1.176.078 1.786.082.64 0 .942-.213 1.52.107.18-.11.462-.392.575-.575-.47-.314-1.012-.335-1.496-.62-.47-.27-.902-.827-1.427-1.05-.086.108-.19.15-.27.24-.013-.107-.03-.227-.03-.34-.94-.4-2.822-1.313-2.51-2.74.214.38 1.38 1.198 1.812 1.25.16-.77 1.053-.4 1.57-.27.032.13.09.233.133.357.34.074.746.01 1.04-.065-.03.244.123.432.13.66.524.012 1.303.252 1.27.877.427.05 1.432-.01 1.648-.42.244-.46-.54-.724.18-1.15-.115-.96-1.04-1.92-1.043-2.795 1.257.094 3.417.717 2.73-1.146-.3-.8-.857-1.21.136-1.56.074-.028.98-.135 1.118-.14.46-.01.757.083 1.16.174.116-.867-.137-2.526.918-1.794.77.542.693 1.673 1.733 1.717 0 0 .53-1.34 1.34-1.055.806.284 1.093-.525 1.323-.95.24-.427.44.69 1.05 1.314.493.505.74-3.35 1.81-2.45.32.275.338 1.534.387 1.924.106.944.402.88.9 1.565.396-.603-.56-1.03-.18-1.68.344-.59 1.24-.063 1.48.462.077-.08.227-.144.298-.206.11 1.237 1.502.203 1.67 1.055.528.074.97-.26 1.352-.58.334.405.66 1.317.505 1.85 1.034.073.962-.516 1.693.31.396.455.967 1.107 1.2 1.686.093.23.055.71.13 1 .11.46.306.736.496 1.153.284.625.688 1.575-.202 2.025.45.747-.15 1.565.124 2.36.323.974.842 1.214.155 2.03-.59.702-.9.853-1.187 1.833-.23.77-.604 1.327-1.53 1.115.005.14-.047.325-.026.46-.106.063-.25-.003-.362.028-.106.328-.15.377-.308.278m-9.67.297c.186 0 .646.617.795-.013-.05-.85.094-1.373.674-2.05.385.418.913.31 1.17-.187m4.1 1.08c-.06.407.556 1.183 1.013 1.264.02.006.044.01.064.01" fill="none" stroke="#fff" stroke-width=".3" stroke-miterlimit="10"/>
</svg>
