<?xml version="1.0" encoding="utf-8"?>
<!-- Generator: Adobe Illustrator 16.0.4, SVG Export Plug-In . SVG Version: 6.00 Build 0)  -->
<!DOCTYPE svg PUBLIC "-//W3C//DTD SVG 1.1//EN" "http://www.w3.org/Graphics/SVG/1.1/DTD/svg11.dtd">
<svg version="1.1" id="Layer_1" xmlns="http://www.w3.org/2000/svg" xmlns:xlink="http://www.w3.org/1999/xlink" x="0px" y="0px"
	 width="512px" height="512px" viewBox="0 0 512 512" enable-background="new 0 0 512 512" xml:space="preserve">
<g>
	<g id="XMLID_5_">
		<g>
			<path fill="#171617" d="M312.566,269.706c0,0.032-0.006,0.062-0.017,0.09v-0.264
				C312.562,269.587,312.566,269.646,312.566,269.706z"/>
			<path fill="#171617" d="M312.55,276.318c0,0-0.61,0.812-3.258,0.812c-2.644,0-3.436-0.895-3.436-0.895v-6.66
				c0,0.806,1.732,0.932,3.396,0.932c1.563,0,3.118-0.246,3.298-0.712V276.318z"/>
			<path fill="#FFFFFF" d="M310.843,236.801c0,0,0,1.21-0.201,1.891c-0.246,0.886-1.414,1.791-1.414,1.791s-1.288-1.11-1.582-1.788
				c-0.03-0.071-0.051-0.135-0.057-0.195c-0.071-0.629-0.165-1.565-0.165-1.565S309.124,237.473,310.843,236.801z"/>
			<path fill="#171617" d="M312.55,269.532l-3.238,0.021v-0.047c0.348,0,0.73-0.077,1.104-0.31l0.008-0.448
				C312.009,268.889,312.465,269.12,312.55,269.532z"/>
			<path fill="#171617" d="M309.755,268.625c0,0-0.701,0.234-0.978-0.044v-0.252c0.003,0,0.004,0,0.004,0h0.972L309.755,268.625z"/>
			<path fill="#171617" d="M309.755,268.625l-0.002-0.296h0.01c0,0,0.246,0.028,0.428,0.148c0.122,0.08,0.223,0.179,0.22,0.27
				c-0.003,0.153-0.284,0.286-1.199,0.286c-0.822,0-1.111-0.124-1.145-0.269v-0.01c0,0,0,0-0.002,0
				c-0.017-0.108,0.104-0.228,0.25-0.315c0.192-0.113,0.426-0.111,0.463-0.11v0.252
				C309.054,268.859,309.755,268.625,309.755,268.625z"/>
			<path fill="#171617" d="M308.072,269.197c0,0,0.546,0.31,1.239,0.31v0.047l-3.455,0.022c0-0.791,2.135-0.821,2.208-0.821
				c0,0.004,0.002,0.007,0.002,0.01L308.072,269.197z"/>
			<path fill="#171617" d="M308.066,268.765c0.033,0.145,0.322,0.269,1.145,0.269c0.915,0,1.196-0.133,1.199-0.286l0.013,0.002
				l-0.008,0.448c-0.373,0.232-0.756,0.31-1.104,0.31c-0.693,0-1.239-0.31-1.239-0.31L308.066,268.765z"/>
			<polygon fill="#171617" points="308.064,268.755 308.066,268.755 308.066,268.765 			"/>
			<path fill="#171617" d="M310.565,239.717c-0.276,0.281-0.908,1.05-0.908,1.05l0.096,27.562h-0.972c0,0-0.001,0-0.004,0
				l0.044-27.562c0,0-1.195-1.096-1.611-1.983l0.436-0.088c0.294,0.678,1.582,1.788,1.582,1.788s1.168-0.904,1.414-1.791l0.41,0.066
				C310.938,239.136,310.782,239.481,310.565,239.717z"/>
			<path fill="#171617" d="M310.642,238.692c0.201-0.681,0.201-1.891,0.201-1.891c-1.719,0.671-3.419,0.134-3.419,0.134
				s0.094,0.937,0.165,1.565c0.006,0.06,0.026,0.124,0.057,0.195l-0.436,0.088c-0.077-0.166-0.128-0.322-0.139-0.464
				c-0.066-0.909-0.139-1.397-0.139-1.397l-0.627-0.352c0,0,0.977-1.816,2.725-1.954c1.749-0.142,2.904,1.795,2.904,1.795
				l-0.597,0.228c0,0,0,1.157-0.286,2.119L310.642,238.692z"/>
			<path fill="#171617" d="M312.55,269.796c-0.18,0.466-1.734,0.712-3.298,0.712c-1.663,0-3.396-0.126-3.396-0.932l3.455-0.022
				l3.238-0.021V269.796z"/>
		</g>
		<g>
		</g>
	</g>
	<g id="XMLID_6_">
		<g>
			<path fill="#171617" d="M276.957,276.318c0,0-0.608,0.812-3.256,0.812c-2.644,0-3.437-0.895-3.437-0.895v-6.66
				c0,0.806,1.732,0.932,3.396,0.932c1.558,0,3.107-0.245,3.297-0.707V276.318z"/>
			<path fill="#171617" d="M276.957,269.532l-3.237,0.021v-0.047c0.348,0,0.731-0.077,1.104-0.31l0.008-0.448
				c1.797,0.159,2.145,0.434,2.145,0.957c0,0.033-0.007,0.064-0.019,0.095V269.532z"/>
			<path fill="#171617" d="M274.162,268.625c0,0-0.7,0.234-0.975-0.044v-0.252c0.001,0,0.003,0,0.003,0h0.97L274.162,268.625z"/>
			<path fill="#171617" d="M273.619,269.033c-0.838,0-1.122-0.129-1.144-0.278c-0.018-0.108,0.102-0.228,0.248-0.315
				c0.194-0.115,0.432-0.111,0.464-0.11v0.252c0.274,0.278,0.975,0.044,0.975,0.044l-0.002-0.296h0.01c0,0,0.248,0.028,0.431,0.148
				c0.121,0.08,0.222,0.177,0.218,0.27C274.815,268.9,274.534,269.033,273.619,269.033z"/>
			<path fill="#171617" d="M272.476,268.755c0.021,0.149,0.306,0.278,1.144,0.278c0.915,0,1.196-0.133,1.199-0.286l0.013,0.002
				l-0.008,0.448c-0.372,0.232-0.756,0.31-1.104,0.31c-0.693,0-1.238-0.31-1.238-0.31L272.476,268.755z"/>
			<path fill="#171617" d="M273.72,269.507v0.047l-3.455,0.022c0-0.805,2.211-0.821,2.211-0.821l0.006,0.442
				C272.481,269.197,273.026,269.507,273.72,269.507z"/>
			<path fill="#FFFFFF" d="M273.637,240.483c0,0-1.289-1.11-1.583-1.788c-0.029-0.071-0.05-0.135-0.057-0.195
				c-0.07-0.629-0.165-1.565-0.165-1.565s1.702,0.538,3.419-0.134c0,0,0,1.21-0.201,1.891
				C274.805,239.579,273.637,240.483,273.637,240.483z"/>
			<path fill="#171617" d="M273.229,240.767c0,0-1.194-1.096-1.611-1.983l0.436-0.088c0.294,0.678,1.583,1.788,1.583,1.788
				s1.168-0.904,1.413-1.791l0.409,0.066c-0.112,0.377-0.268,0.723-0.484,0.959c-0.276,0.281-0.909,1.05-0.909,1.05l0.095,27.562
				h-0.97c0,0-0.002,0-0.003,0L273.229,240.767z"/>
			<path fill="#171617" d="M275.251,236.801c-1.717,0.671-3.419,0.134-3.419,0.134s0.095,0.937,0.165,1.565
				c0.007,0.06,0.027,0.124,0.057,0.195l-0.436,0.088c-0.077-0.166-0.127-0.322-0.138-0.464c-0.066-0.909-0.137-1.397-0.137-1.397
				l-0.629-0.352c0,0,0.975-1.816,2.724-1.954c1.75-0.142,2.905,1.795,2.905,1.795l-0.599,0.228c0,0,0,1.157-0.286,2.119
				l-0.409-0.066C275.251,238.012,275.251,236.801,275.251,236.801z"/>
			<path fill="#171617" d="M276.957,269.532v0.269c-0.189,0.462-1.739,0.707-3.297,0.707c-1.663,0-3.396-0.126-3.396-0.932
				l3.455-0.022L276.957,269.532z"/>
		</g>
		<g>
		</g>
	</g>
	<g id="XMLID_8_">
		<g>
			<path fill="#171617" d="M241.365,276.318c0,0-0.608,0.812-3.255,0.812c-2.644,0-3.436-0.895-3.436-0.895v-6.66
				c0,0.806,1.732,0.932,3.395,0.932c1.558,0,3.108-0.245,3.296-0.707V276.318z"/>
			<path fill="#FFFFFF" d="M239.66,236.801c0,0,0,1.21-0.201,1.891c-0.245,0.886-1.413,1.791-1.413,1.791s-1.289-1.11-1.583-1.788
				c-0.03-0.071-0.05-0.135-0.057-0.195c-0.07-0.629-0.165-1.565-0.165-1.565S237.942,237.473,239.66,236.801z"/>
			<path fill="#171617" d="M241.365,269.532l-3.236,0.021v-0.047c0.347,0,0.731-0.077,1.104-0.31l0.008-0.448
				c1.796,0.159,2.144,0.434,2.144,0.957c0,0.033-0.006,0.064-0.019,0.095V269.532z"/>
			<path fill="#171617" d="M238.57,268.625c0,0-0.699,0.234-0.976-0.044v-0.252c0.003,0,0.005,0,0.005,0h0.97L238.57,268.625z"/>
			<path fill="#171617" d="M237.594,268.581c0.277,0.278,0.976,0.044,0.976,0.044l-0.001-0.296h0.01c0,0,0.248,0.028,0.429,0.148
				c0.123,0.08,0.222,0.179,0.22,0.27c-0.005,0.153-0.285,0.286-1.199,0.286c-0.822,0-1.111-0.124-1.145-0.269v-0.01
				c0,0,0,0-0.001,0c-0.018-0.108,0.104-0.228,0.25-0.315c0.192-0.113,0.426-0.111,0.462-0.11V268.581z"/>
			<path fill="#171617" d="M236.89,269.197c0,0,0.545,0.31,1.239,0.31v0.047l-3.455,0.022c0-0.791,2.135-0.821,2.208-0.821
				c0,0.004,0.001,0.007,0.001,0.01L236.89,269.197z"/>
			<path fill="#171617" d="M239.232,269.197c-0.373,0.232-0.756,0.31-1.104,0.31c-0.693,0-1.239-0.31-1.239-0.31l-0.006-0.433
				c0.033,0.145,0.322,0.269,1.145,0.269c0.915,0,1.194-0.133,1.199-0.286l0.013,0.002L239.232,269.197z"/>
			<polygon fill="#171617" points="236.884,268.765 236.882,268.755 236.884,268.755 			"/>
			<path fill="#171617" d="M238.045,240.483c0,0,1.168-0.904,1.413-1.791l0.409,0.066c-0.111,0.377-0.267,0.723-0.484,0.959
				c-0.277,0.281-0.909,1.05-0.909,1.05l0.094,27.562h-0.97c0,0-0.001,0-0.005,0l0.044-27.562c0,0-1.194-1.096-1.611-1.983
				l0.435-0.088C236.756,239.373,238.045,240.483,238.045,240.483z"/>
			<path fill="#171617" d="M235.123,236.57c0,0,0.975-1.816,2.725-1.954c1.75-0.142,2.905,1.795,2.905,1.795l-0.599,0.228
				c0,0,0,1.157-0.286,2.119l-0.409-0.066c0.201-0.681,0.201-1.891,0.201-1.891c-1.718,0.671-3.419,0.134-3.419,0.134
				s0.095,0.937,0.165,1.565c0.006,0.06,0.027,0.124,0.057,0.195l-0.435,0.088c-0.077-0.166-0.127-0.322-0.139-0.464
				c-0.066-0.909-0.138-1.397-0.138-1.397L235.123,236.57z"/>
			<path fill="#171617" d="M241.365,269.801c-0.188,0.462-1.738,0.707-3.296,0.707c-1.663,0-3.395-0.126-3.395-0.932l3.455-0.022
				l3.236-0.021V269.801z"/>
		</g>
		<g>
		</g>
	</g>
	<g id="XMLID_9_">
		<g>
			<path fill="#171617" d="M205.774,276.318c0,0-0.608,0.812-3.255,0.812c-2.644,0-3.436-0.895-3.436-0.895v-6.66
				c0,0.806,1.732,0.932,3.396,0.932c1.558,0,3.107-0.245,3.296-0.707V276.318z"/>
			<path fill="#FFFFFF" d="M204.068,236.801c0,0,0,1.21-0.201,1.891c-0.245,0.886-1.413,1.791-1.413,1.791s-1.289-1.11-1.583-1.788
				c-0.03-0.071-0.05-0.135-0.056-0.195c-0.071-0.629-0.165-1.565-0.165-1.565S202.351,237.473,204.068,236.801z"/>
			<path fill="#171617" d="M205.774,269.532l-3.236,0.021v-0.047c0.347,0,0.731-0.077,1.104-0.31l0.008-0.448
				c1.797,0.159,2.144,0.434,2.144,0.957c0,0.033-0.006,0.064-0.019,0.095V269.532z"/>
			<path fill="#171617" d="M202.979,268.625c0,0-0.7,0.234-0.977-0.044v-0.252c0.003,0,0.005,0,0.005,0h0.97L202.979,268.625z"/>
			<path fill="#171617" d="M202.003,268.581c0.277,0.278,0.977,0.044,0.977,0.044l-0.002-0.296h0.01c0,0,0.248,0.028,0.429,0.148
				c0.123,0.08,0.222,0.179,0.22,0.27c-0.004,0.153-0.285,0.286-1.199,0.286c-0.822,0-1.111-0.124-1.145-0.269v-0.01
				c0,0,0,0-0.001,0c-0.017-0.108,0.104-0.228,0.25-0.315c0.192-0.113,0.426-0.111,0.462-0.11V268.581z"/>
			<path fill="#171617" d="M202.538,269.507v0.047l-3.455,0.022c0-0.791,2.135-0.821,2.208-0.821c0,0.004,0.001,0.007,0.001,0.01
				l0.006,0.433C201.299,269.197,201.844,269.507,202.538,269.507z"/>
			<path fill="#171617" d="M203.641,269.197c-0.373,0.232-0.756,0.31-1.104,0.31c-0.693,0-1.239-0.31-1.239-0.31l-0.006-0.433
				c0.033,0.145,0.322,0.269,1.145,0.269c0.915,0,1.195-0.133,1.199-0.286l0.013,0.002L203.641,269.197z"/>
			<polygon fill="#171617" points="201.291,268.755 201.292,268.755 201.292,268.765 			"/>
			<path fill="#171617" d="M202.047,240.767c0,0-1.194-1.096-1.611-1.983l0.435-0.088c0.294,0.678,1.583,1.788,1.583,1.788
				s1.168-0.904,1.413-1.791l0.409,0.066c-0.111,0.377-0.267,0.723-0.484,0.959c-0.277,0.281-0.909,1.05-0.909,1.05l0.094,27.562
				h-0.97c0,0-0.001,0-0.005,0L202.047,240.767z"/>
			<path fill="#171617" d="M199.532,236.57c0,0,0.975-1.816,2.724-1.954c1.75-0.142,2.905,1.795,2.905,1.795l-0.599,0.228
				c0,0,0,1.157-0.286,2.119l-0.409-0.066c0.201-0.681,0.201-1.891,0.201-1.891c-1.718,0.671-3.418,0.134-3.418,0.134
				s0.094,0.937,0.165,1.565c0.006,0.06,0.026,0.124,0.056,0.195l-0.435,0.088c-0.077-0.166-0.127-0.322-0.139-0.464
				c-0.066-0.909-0.138-1.397-0.138-1.397L199.532,236.57z"/>
			<path fill="#171617" d="M205.774,269.801c-0.188,0.462-1.738,0.707-3.296,0.707c-1.663,0-3.396-0.126-3.396-0.932l3.455-0.022
				l3.236-0.021V269.801z"/>
		</g>
		<g>
		</g>
	</g>
	<g id="XMLID_12_">
		<g>
			<path fill="#171617" d="M170.183,276.318c0,0-0.608,0.812-3.256,0.812c-2.644,0-3.436-0.895-3.436-0.895v-6.66
				c0,0.806,1.732,0.932,3.396,0.932c1.558,0,3.107-0.245,3.296-0.707V276.318z"/>
			<path fill="#FFFFFF" d="M168.478,236.801c0,0,0,1.21-0.201,1.891c-0.246,0.886-1.414,1.791-1.414,1.791s-1.289-1.11-1.583-1.788
				c-0.03-0.071-0.05-0.135-0.057-0.195c-0.071-0.629-0.165-1.565-0.165-1.565S166.759,237.473,168.478,236.801z"/>
			<path fill="#171617" d="M170.183,269.532l-3.237,0.021v-0.047c0.347,0,0.731-0.077,1.104-0.31l0.008-0.448
				c1.797,0.159,2.144,0.434,2.144,0.957c0,0.033-0.006,0.064-0.019,0.095V269.532z"/>
			<path fill="#171617" d="M166.412,268.581v-0.252c0.003,0,0.005,0,0.005,0h0.97l0.002,0.296
				C167.388,268.625,166.688,268.859,166.412,268.581z"/>
			<path fill="#171617" d="M168.045,268.747c-0.004,0.153-0.284,0.286-1.199,0.286c-0.822,0-1.111-0.124-1.145-0.269v-0.01
				c0,0,0,0-0.001,0c-0.017-0.108,0.104-0.228,0.25-0.315c0.192-0.113,0.426-0.111,0.462-0.11v0.252
				c0.277,0.278,0.977,0.044,0.977,0.044l-0.002-0.296h0.01c0,0,0.248,0.028,0.429,0.148
				C167.948,268.558,168.046,268.656,168.045,268.747z"/>
			<path fill="#171617" d="M166.946,269.507v0.047l-3.455,0.022c0-0.791,2.135-0.821,2.208-0.821c0,0.004,0.001,0.007,0.001,0.01
				l0.006,0.433C165.708,269.197,166.253,269.507,166.946,269.507z"/>
			<path fill="#171617" d="M168.05,269.197c-0.373,0.232-0.756,0.31-1.104,0.31c-0.693,0-1.239-0.31-1.239-0.31l-0.006-0.433
				c0.033,0.145,0.322,0.269,1.145,0.269c0.915,0,1.195-0.133,1.199-0.286l0.013,0.002L168.05,269.197z"/>
			<polygon fill="#171617" points="165.7,268.755 165.701,268.755 165.701,268.765 			"/>
			<path fill="#171617" d="M166.863,240.483c0,0,1.168-0.904,1.414-1.791l0.409,0.066c-0.112,0.377-0.268,0.723-0.484,0.959
				c-0.277,0.281-0.909,1.05-0.909,1.05l0.094,27.562h-0.97c0,0-0.001,0-0.005,0l0.044-27.562c0,0-1.195-1.096-1.611-1.983
				l0.436-0.088C165.574,239.373,166.863,240.483,166.863,240.483z"/>
			<path fill="#171617" d="M163.941,236.57c0,0,0.975-1.816,2.724-1.954c1.75-0.142,2.905,1.795,2.905,1.795l-0.599,0.228
				c0,0,0,1.157-0.286,2.119l-0.409-0.066c0.201-0.681,0.201-1.891,0.201-1.891c-1.718,0.671-3.419,0.134-3.419,0.134
				s0.094,0.937,0.165,1.565c0.006,0.06,0.026,0.124,0.057,0.195l-0.436,0.088c-0.077-0.166-0.127-0.322-0.139-0.464
				c-0.066-0.909-0.138-1.397-0.138-1.397L163.941,236.57z"/>
			<path fill="#171617" d="M170.183,269.801c-0.189,0.462-1.739,0.707-3.296,0.707c-1.663,0-3.396-0.126-3.396-0.932l3.455-0.022
				l3.237-0.021V269.801z"/>
		</g>
		<g>
		</g>
	</g>
	<g id="XMLID_13_">
		<g>
			<path fill="#171617" d="M134.592,276.318c0,0-0.608,0.812-3.256,0.812c-2.644,0-3.436-0.895-3.436-0.895v-6.66
				c0,0.806,1.732,0.932,3.396,0.932c1.558,0,3.107-0.245,3.296-0.707V276.318z"/>
			<path fill="#FFFFFF" d="M132.886,236.801c0,0,0,1.21-0.201,1.891c-0.246,0.886-1.414,1.791-1.414,1.791s-1.289-1.11-1.583-1.788
				c-0.03-0.071-0.05-0.135-0.057-0.195c-0.071-0.629-0.165-1.565-0.165-1.565S131.168,237.473,132.886,236.801z"/>
			<path fill="#171617" d="M134.592,269.532l-3.237,0.021v-0.047c0.348,0,0.731-0.077,1.104-0.31l0.008-0.448
				c1.797,0.159,2.144,0.434,2.144,0.957c0,0.033-0.006,0.064-0.019,0.095V269.532z"/>
			<path fill="#171617" d="M131.797,268.625c0,0-0.7,0.234-0.976-0.044v-0.252c0.003,0,0.004,0,0.004,0h0.97L131.797,268.625z"/>
			<path fill="#171617" d="M130.358,268.439c0.192-0.113,0.426-0.111,0.462-0.11v0.252c0.276,0.278,0.976,0.044,0.976,0.044
				l-0.002-0.296h0.01c0,0,0.248,0.028,0.429,0.148c0.123,0.08,0.222,0.179,0.22,0.27c-0.004,0.153-0.284,0.286-1.199,0.286
				c-0.822,0-1.111-0.124-1.145-0.269v-0.01c0,0,0,0-0.001,0C130.091,268.646,130.212,268.527,130.358,268.439z"/>
			<path fill="#171617" d="M131.355,269.507v0.047l-3.455,0.022c0-0.791,2.135-0.821,2.208-0.821c0,0.004,0.001,0.007,0.001,0.01
				l0.006,0.433C130.116,269.197,130.662,269.507,131.355,269.507z"/>
			<path fill="#171617" d="M131.254,269.033c0.915,0,1.195-0.133,1.199-0.286l0.013,0.002l-0.008,0.448
				c-0.373,0.232-0.756,0.31-1.104,0.31c-0.693,0-1.239-0.31-1.239-0.31l-0.006-0.433
				C130.143,268.909,130.432,269.033,131.254,269.033z"/>
			<polygon fill="#171617" points="130.108,268.755 130.11,268.755 130.11,268.765 			"/>
			<path fill="#171617" d="M132.609,239.717c-0.277,0.281-0.909,1.05-0.909,1.05l0.094,27.562h-0.97c0,0-0.001,0-0.004,0
				l0.044-27.562c0,0-1.195-1.096-1.611-1.983l0.436-0.088c0.294,0.678,1.583,1.788,1.583,1.788s1.168-0.904,1.414-1.791
				l0.409,0.066C132.982,239.136,132.826,239.481,132.609,239.717z"/>
			<path fill="#171617" d="M128.35,236.57c0,0,0.975-1.816,2.724-1.954c1.75-0.142,2.905,1.795,2.905,1.795l-0.599,0.228
				c0,0,0,1.157-0.286,2.119l-0.409-0.066c0.201-0.681,0.201-1.891,0.201-1.891c-1.718,0.671-3.419,0.134-3.419,0.134
				s0.094,0.937,0.165,1.565c0.006,0.06,0.026,0.124,0.057,0.195l-0.436,0.088c-0.077-0.166-0.127-0.322-0.138-0.464
				c-0.066-0.909-0.139-1.397-0.139-1.397L128.35,236.57z"/>
			<path fill="#171617" d="M134.592,269.801c-0.189,0.462-1.739,0.707-3.296,0.707c-1.663,0-3.396-0.126-3.396-0.932l3.455-0.022
				l3.237-0.021V269.801z"/>
		</g>
		<g>
		</g>
	</g>
	<g id="XMLID_18_">
		<g>
			<path fill="#171617" d="M491.395,276.318c0,0-0.608,0.812-3.256,0.812c-2.644,0-3.437-0.895-3.437-0.895v-6.66
				c0,0.806,1.732,0.932,3.396,0.932c1.558,0,3.107-0.245,3.297-0.707V276.318z"/>
			<path fill="#FFFFFF" d="M489.688,236.801c0,0,0,1.064-0.165,1.757c-0.011,0.047-0.023,0.091-0.036,0.134
				c-0.245,0.886-1.413,1.791-1.413,1.791s-1.289-1.11-1.583-1.788c-0.029-0.071-0.05-0.135-0.057-0.195
				c-0.07-0.629-0.165-1.565-0.165-1.565S487.971,237.473,489.688,236.801z"/>
			<path fill="#171617" d="M488.157,269.554v-0.047c0.348,0,0.731-0.077,1.104-0.31l0.008-0.448
				c1.797,0.159,2.145,0.434,2.145,0.957c0,0.033-0.006,0.064-0.019,0.095v-0.269L488.157,269.554z"/>
			<path fill="#171617" d="M487.623,268.581v-0.252c0.005,0,0.007,0,0.007,0h0.968l0.002,0.296
				C488.6,268.625,487.899,268.859,487.623,268.581z"/>
			<path fill="#171617" d="M487.623,268.329v0.252c0.276,0.278,0.977,0.044,0.977,0.044l-0.002-0.296h0.01
				c0,0,0.25,0.028,0.431,0.148c0.121,0.08,0.222,0.177,0.219,0.27c-0.004,0.153-0.285,0.286-1.2,0.286
				c-0.838,0-1.122-0.129-1.144-0.278c-0.018-0.108,0.102-0.228,0.248-0.315C487.352,268.328,487.582,268.328,487.623,268.329z"/>
			<path fill="#171617" d="M489.261,269.197c-0.372,0.232-0.756,0.31-1.104,0.31c-0.692,0-1.238-0.31-1.238-0.31l-0.006-0.442
				c0.021,0.149,0.306,0.278,1.144,0.278c0.915,0,1.196-0.133,1.2-0.286l0.012,0.002L489.261,269.197z"/>
			<path fill="#171617" d="M488.157,269.507v0.047l-3.455,0.022c0-0.805,2.211-0.821,2.211-0.821l0.006,0.442
				C486.919,269.197,487.465,269.507,488.157,269.507z"/>
			<path fill="#171617" d="M487.669,240.767c0,0-1.196-1.096-1.613-1.983l0.436-0.088c0.294,0.678,1.583,1.788,1.583,1.788
				s1.168-0.904,1.413-1.791c0.013-0.042,0.025-0.086,0.036-0.134l0.409,0.074c-0.113,0.425-0.278,0.822-0.52,1.085
				c-0.277,0.281-0.909,1.05-0.909,1.05l0.094,27.562h-0.968c0,0-0.002,0-0.007,0L487.669,240.767z"/>
			<path fill="#171617" d="M485.152,236.57c0,0,0.975-1.816,2.724-1.954c1.75-0.142,2.905,1.795,2.905,1.795l-0.599,0.228
				c0,0,0,1.06-0.25,1.993l-0.409-0.074c0.165-0.693,0.165-1.757,0.165-1.757c-1.718,0.671-3.419,0.134-3.419,0.134
				s0.095,0.937,0.165,1.565c0.007,0.06,0.027,0.124,0.057,0.195l-0.436,0.088c-0.077-0.166-0.127-0.322-0.138-0.464
				c-0.066-0.909-0.137-1.397-0.137-1.397L485.152,236.57z"/>
			<path fill="#171617" d="M491.395,269.801c-0.189,0.462-1.739,0.707-3.297,0.707c-1.663,0-3.396-0.126-3.396-0.932l3.455-0.022
				l3.237-0.021V269.801z"/>
		</g>
		<g>
		</g>
	</g>
	<g id="XMLID_4_">
		<g>
			<path fill="#171617" d="M452.548,277.131c-2.643,0-3.437-0.895-3.437-0.895v-6.66c0,0.806,1.732,0.932,3.396,0.932
				c1.56,0,3.109-0.245,3.296-0.707v6.518C455.803,276.318,455.194,277.131,452.548,277.131z"/>
			<path fill="#FFFFFF" d="M454.098,236.801c0,0,0,1.21-0.201,1.891c-0.245,0.886-1.413,1.791-1.413,1.791s-1.289-1.11-1.583-1.788
				c-0.03-0.071-0.051-0.135-0.057-0.195c-0.071-0.629-0.165-1.565-0.165-1.565S452.379,237.473,454.098,236.801z"/>
			<path fill="#171617" d="M452.566,269.554v-0.047c0.348,0,0.73-0.077,1.104-0.31l0.008-0.448c1.797,0.159,2.145,0.434,2.145,0.957
				c0,0.033-0.007,0.064-0.02,0.095v-0.269L452.566,269.554z"/>
			<path fill="#171617" d="M452.032,268.581v-0.252c0.003,0,0.004,0,0.004,0h0.971l0.001,0.296
				C453.008,268.625,452.309,268.859,452.032,268.581z"/>
			<path fill="#171617" d="M453.665,268.747c-0.005,0.153-0.284,0.286-1.199,0.286c-0.822,0-1.111-0.124-1.145-0.269v-0.01
				c0,0,0,0-0.002,0c-0.017-0.108,0.104-0.228,0.25-0.315c0.192-0.113,0.427-0.111,0.463-0.11v0.252
				c0.276,0.278,0.976,0.044,0.976,0.044l-0.001-0.296h0.009c0,0,0.249,0.028,0.43,0.148
				C453.567,268.558,453.667,268.656,453.665,268.747z"/>
			<path fill="#171617" d="M452.566,269.507v0.047l-3.455,0.022c0-0.791,2.135-0.821,2.208-0.821c0,0.004,0.002,0.007,0.002,0.01
				l0.007,0.433C451.328,269.197,451.873,269.507,452.566,269.507z"/>
			<path fill="#171617" d="M453.67,269.197c-0.373,0.232-0.756,0.31-1.104,0.31c-0.693,0-1.238-0.31-1.238-0.31l-0.007-0.433
				c0.033,0.145,0.322,0.269,1.145,0.269c0.915,0,1.194-0.133,1.199-0.286l0.013,0.002L453.67,269.197z"/>
			<polygon fill="#171617" points="451.319,268.755 451.321,268.755 451.321,268.765 			"/>
			<path fill="#171617" d="M452.076,240.767c0,0-1.195-1.096-1.611-1.983l0.436-0.088c0.294,0.678,1.583,1.788,1.583,1.788
				s1.168-0.904,1.413-1.791l0.41,0.066c-0.113,0.377-0.269,0.723-0.486,0.959c-0.274,0.281-0.908,1.05-0.908,1.05l0.095,27.562
				h-0.971c0,0-0.001,0-0.004,0L452.076,240.767z"/>
			<path fill="#171617" d="M449.561,236.57c0,0,0.975-1.816,2.725-1.954c1.749-0.142,2.904,1.795,2.904,1.795l-0.597,0.228
				c0,0,0,1.157-0.286,2.119l-0.41-0.066c0.201-0.681,0.201-1.891,0.201-1.891c-1.719,0.671-3.419,0.134-3.419,0.134
				s0.094,0.937,0.165,1.565c0.006,0.06,0.026,0.124,0.057,0.195l-0.436,0.088c-0.077-0.166-0.128-0.322-0.139-0.464
				c-0.065-0.909-0.138-1.397-0.138-1.397L449.561,236.57z"/>
			<path fill="#171617" d="M455.803,269.801c-0.187,0.462-1.736,0.707-3.296,0.707c-1.663,0-3.396-0.126-3.396-0.932l3.455-0.022
				l3.236-0.021V269.801z"/>
		</g>
		<g>
		</g>
	</g>
	<g id="XMLID_3_">
		<g>
			<path fill="#171617" d="M416.956,277.131c-2.644,0-3.437-0.895-3.437-0.895v-6.66c0,0.806,1.732,0.932,3.396,0.932
				c1.558,0,3.108-0.245,3.297-0.707v6.518C420.212,276.318,419.604,277.131,416.956,277.131z"/>
			<path fill="#171617" d="M420.212,269.532l-3.237,0.021v-0.047c0.348,0,0.731-0.077,1.104-0.31l0.008-0.448
				c1.797,0.159,2.145,0.434,2.145,0.957c0,0.033-0.006,0.064-0.019,0.095V269.532z"/>
			<path fill="#171617" d="M415.309,238.695c0.296,0.678,1.585,1.788,1.585,1.788s1.166-0.904,1.411-1.791
				c0.013-0.042,0.025-0.086,0.036-0.134l0.409,0.074c-0.113,0.425-0.278,0.822-0.519,1.085c-0.278,0.281-0.91,1.05-0.91,1.05
				l0.094,27.562h-0.968c0,0-0.002,0-0.007,0l0.044-27.562c0,0-1.194-1.096-1.611-1.983L415.309,238.695z"/>
			<path fill="#171617" d="M417.417,268.625c0,0-0.7,0.234-0.977-0.044v-0.252c0.005,0,0.007,0,0.007,0h0.968L417.417,268.625z"/>
			<path fill="#171617" d="M416.44,268.581c0.276,0.278,0.977,0.044,0.977,0.044l-0.002-0.296h0.01c0,0,0.25,0.028,0.429,0.148
				c0.123,0.08,0.222,0.179,0.221,0.27c-0.005,0.153-0.285,0.286-1.2,0.286c-0.821,0-1.111-0.124-1.144-0.269v-0.01c0,0,0,0-0.002,0
				c-0.018-0.108,0.104-0.228,0.25-0.315c0.19-0.111,0.421-0.111,0.462-0.11V268.581z"/>
			<path fill="#171617" d="M413.52,269.576c0-0.791,2.135-0.821,2.209-0.821c0,0.004,0.002,0.007,0.002,0.01l0.006,0.433
				c0,0,0.546,0.31,1.238,0.31v0.047L413.52,269.576z"/>
			<path fill="#171617" d="M418.078,269.197c-0.372,0.232-0.756,0.31-1.104,0.31c-0.692,0-1.238-0.31-1.238-0.31l-0.006-0.433
				c0.032,0.145,0.322,0.269,1.144,0.269c0.915,0,1.195-0.133,1.2-0.286l0.012,0.002L418.078,269.197z"/>
			<polygon fill="#171617" points="415.73,268.765 415.729,268.755 415.73,268.755 			"/>
			<path fill="#FFFFFF" d="M416.894,240.483c0,0-1.289-1.11-1.585-1.788c-0.029-0.071-0.05-0.135-0.057-0.195
				c-0.07-0.629-0.165-1.565-0.165-1.565s1.701,0.538,3.419-0.134c0,0,0,1.064-0.165,1.757c-0.011,0.047-0.023,0.091-0.036,0.134
				C418.06,239.579,416.894,240.483,416.894,240.483z"/>
			<path fill="#171617" d="M413.97,236.57c0,0,0.975-1.816,2.724-1.954c1.75-0.142,2.905,1.795,2.905,1.795L419,236.639
				c0,0,0,1.06-0.25,1.993l-0.409-0.074c0.165-0.693,0.165-1.757,0.165-1.757c-1.718,0.671-3.419,0.134-3.419,0.134
				s0.095,0.937,0.165,1.565c0.007,0.06,0.027,0.124,0.057,0.195l-0.436,0.088c-0.077-0.166-0.127-0.322-0.138-0.464
				c-0.064-0.909-0.137-1.397-0.137-1.397L413.97,236.57z"/>
			<path fill="#171617" d="M420.212,269.801c-0.188,0.462-1.739,0.707-3.297,0.707c-1.663,0-3.396-0.126-3.396-0.932l3.455-0.022
				l3.237-0.021V269.801z"/>
		</g>
		<g>
		</g>
	</g>
	<g id="XMLID_2_">
		<g>
			<path fill="#171617" d="M377.929,269.576c0,0.806,1.733,0.932,3.396,0.932c1.558,0,3.107-0.245,3.296-0.707v6.518
				c0,0-0.608,0.812-3.255,0.812c-2.645,0-3.437-0.895-3.437-0.895V269.576z"/>
			<path fill="#171617" d="M381.384,269.554v-0.047c0.348,0,0.732-0.077,1.105-0.31l0.008-0.448
				c1.795,0.159,2.143,0.434,2.143,0.957c0,0.033-0.007,0.064-0.02,0.095v-0.269L381.384,269.554z"/>
			<path fill="#171617" d="M381.825,268.625c0,0-0.699,0.234-0.976-0.044v-0.252c0.003,0,0.005,0,0.005,0h0.97L381.825,268.625z"/>
			<path fill="#171617" d="M380.85,268.329v0.252c0.276,0.278,0.976,0.044,0.976,0.044l-0.001-0.296h0.009
				c0,0,0.249,0.028,0.43,0.148c0.122,0.08,0.223,0.179,0.22,0.27c-0.003,0.153-0.284,0.286-1.199,0.286
				c-0.822,0-1.111-0.124-1.145-0.269v-0.01c0,0,0,0-0.001,0c-0.018-0.108,0.104-0.228,0.25-0.315
				C380.579,268.326,380.813,268.328,380.85,268.329z"/>
			<path fill="#171617" d="M380.894,240.767c0,0-0.655-0.6-1.165-1.275l0.412-0.169c0.484,0.578,1.16,1.16,1.16,1.16
				s1.168-0.904,1.413-1.791l0.408,0.066c-0.111,0.377-0.267,0.723-0.483,0.959c-0.277,0.281-0.909,1.05-0.909,1.05l0.095,27.562
				h-0.97c0,0-0.002,0-0.005,0L380.894,240.767z"/>
			<path fill="#171617" d="M380.146,269.197c0,0,0.545,0.31,1.238,0.31v0.047l-3.455,0.022c0-0.791,2.135-0.821,2.209-0.821
				c0,0.004,0.001,0.007,0.001,0.01L380.146,269.197z"/>
			<path fill="#171617" d="M380.139,268.765c0.033,0.145,0.322,0.269,1.145,0.269c0.915,0,1.196-0.133,1.199-0.286l0.013,0.002
				h0.002l-0.008,0.448c-0.373,0.232-0.758,0.31-1.105,0.31c-0.693,0-1.238-0.31-1.238-0.31L380.139,268.765z"/>
			<polygon fill="#171617" points="380.139,268.765 380.138,268.755 380.139,268.755 			"/>
			<path fill="#FFFFFF" d="M381.301,240.483c0,0-0.676-0.582-1.16-1.16c-0.253-0.304-0.454-0.605-0.479-0.822
				c-0.072-0.629-0.166-1.565-0.166-1.565s1.7,0.538,3.419-0.134c0,0,0,1.21-0.201,1.891
				C382.469,239.579,381.301,240.483,381.301,240.483z"/>
			<path fill="#171617" d="M382.915,236.801c-1.719,0.671-3.419,0.134-3.419,0.134s0.094,0.937,0.166,1.565
				c0.024,0.217,0.226,0.519,0.479,0.822l-0.412,0.169c-0.305-0.402-0.558-0.832-0.585-1.172c-0.065-0.909-0.138-1.397-0.138-1.397
				l-0.628-0.352c0,0,0.975-1.816,2.725-1.954c1.749-0.142,2.905,1.795,2.905,1.795l-0.6,0.228c0,0,0,1.157-0.286,2.119
				l-0.408-0.066C382.915,238.012,382.915,236.801,382.915,236.801z"/>
			<path fill="#171617" d="M381.324,270.508c-1.662,0-3.396-0.126-3.396-0.932l3.455-0.022l3.236-0.021v0.269
				C384.432,270.263,382.882,270.508,381.324,270.508z"/>
		</g>
		<g>
		</g>
	</g>
	<g id="XMLID_1_">
		<g>
			<path fill="#171617" d="M345.773,277.131c-2.644,0-3.436-0.895-3.436-0.895v-6.66c0,0.806,1.731,0.932,3.395,0.932
				c1.559,0,3.108-0.245,3.297-0.707v6.518C349.029,276.318,348.421,277.131,345.773,277.131z"/>
			<path fill="#FFFFFF" d="M347.323,236.801c0,0,0,1.064-0.165,1.757c-0.011,0.047-0.023,0.091-0.036,0.134
				c-0.245,0.886-1.413,1.791-1.413,1.791s-1.289-1.11-1.583-1.788c-0.029-0.071-0.05-0.135-0.057-0.195
				c-0.07-0.629-0.165-1.565-0.165-1.565S345.605,237.473,347.323,236.801z"/>
			<path fill="#171617" d="M346.896,269.197l0.008-0.448c1.796,0.159,2.144,0.434,2.144,0.957c0,0.033-0.006,0.064-0.019,0.095
				v-0.269l-3.236,0.021v-0.047C346.14,269.507,346.523,269.43,346.896,269.197z"/>
			<path fill="#171617" d="M345.265,268.329h0.97l0.001,0.296c0,0-0.7,0.234-0.978-0.044v-0.252
				C345.263,268.329,345.265,268.329,345.265,268.329z"/>
			<path fill="#171617" d="M344.546,268.755c-0.018-0.108,0.104-0.228,0.25-0.315c0.191-0.111,0.421-0.111,0.462-0.11v0.252
				c0.277,0.278,0.978,0.044,0.978,0.044l-0.001-0.296h0.01c0,0,0.246,0.028,0.427,0.148c0.123,0.08,0.222,0.179,0.221,0.27
				c-0.005,0.153-0.285,0.286-1.199,0.286c-0.822,0-1.111-0.124-1.145-0.269v-0.01C344.548,268.755,344.548,268.755,344.546,268.755
				z"/>
			<path fill="#171617" d="M344.554,269.197c0,0,0.546,0.31,1.239,0.31v0.047l-3.455,0.022c0-0.791,2.134-0.821,2.208-0.821
				c0,0.004,0.002,0.007,0.002,0.01L344.554,269.197z"/>
			<path fill="#171617" d="M344.548,268.765c0.033,0.145,0.322,0.269,1.145,0.269c0.914,0,1.194-0.133,1.199-0.286l0.013,0.002
				l-0.008,0.448c-0.373,0.232-0.757,0.31-1.104,0.31c-0.693,0-1.239-0.31-1.239-0.31L344.548,268.765z"/>
			<polygon fill="#171617" points="344.546,268.755 344.548,268.755 344.548,268.765 			"/>
			<path fill="#171617" d="M345.302,240.767c0,0-1.194-1.096-1.611-1.983l0.436-0.088c0.294,0.678,1.583,1.788,1.583,1.788
				s1.168-0.904,1.413-1.791c0.013-0.042,0.025-0.086,0.036-0.134l0.409,0.074c-0.113,0.425-0.278,0.822-0.519,1.085
				c-0.278,0.281-0.91,1.05-0.91,1.05l0.096,27.562h-0.97c0,0-0.002,0-0.007,0L345.302,240.767z"/>
			<path fill="#171617" d="M343.553,238.32c-0.066-0.909-0.137-1.397-0.137-1.397l-0.629-0.352c0,0,0.975-1.816,2.724-1.954
				c1.75-0.142,2.905,1.795,2.905,1.795l-0.599,0.228c0,0,0,1.06-0.25,1.993l-0.409-0.074c0.165-0.693,0.165-1.757,0.165-1.757
				c-1.718,0.671-3.419,0.134-3.419,0.134s0.095,0.937,0.165,1.565c0.007,0.06,0.027,0.124,0.057,0.195l-0.436,0.088
				C343.614,238.618,343.563,238.461,343.553,238.32z"/>
			<path fill="#171617" d="M345.732,270.508c-1.663,0-3.395-0.126-3.395-0.932l3.455-0.022l3.236-0.021v0.269
				C348.841,270.263,347.291,270.508,345.732,270.508z"/>
		</g>
		<g>
		</g>
	</g>
	<g id="XMLID_14_">
		<g>
			<path fill="#171617" d="M95.704,270.508c1.558,0,3.107-0.245,3.296-0.707v6.518c0,0-0.608,0.812-3.255,0.812
				c-2.644,0-3.437-0.895-3.437-0.895v-6.66C92.309,270.382,94.041,270.508,95.704,270.508z"/>
			<path fill="#FFFFFF" d="M97.295,236.801c0,0,0,1.21-0.201,1.891c-0.246,0.886-1.413,1.791-1.413,1.791s-1.289-1.11-1.583-1.788
				c-0.03-0.071-0.05-0.135-0.057-0.195c-0.071-0.629-0.165-1.565-0.165-1.565S95.577,237.473,97.295,236.801z"/>
			<path fill="#171617" d="M99,269.532l-3.237,0.021v-0.047c0.348,0,0.731-0.077,1.104-0.31l0.008-0.448
				c1.797,0.159,2.144,0.434,2.144,0.957c0,0.033-0.006,0.064-0.019,0.095V269.532z"/>
			<path fill="#171617" d="M95.229,268.329c0.003,0,0.004,0,0.004,0h0.97l0.001,0.296c0,0-0.7,0.234-0.976-0.044V268.329z"/>
			<path fill="#171617" d="M94.517,268.755c-0.017-0.108,0.104-0.228,0.25-0.315c0.192-0.113,0.426-0.111,0.462-0.11v0.252
				c0.276,0.278,0.976,0.044,0.976,0.044l-0.001-0.296h0.009c0,0,0.249,0.028,0.429,0.148c0.123,0.08,0.222,0.179,0.22,0.27
				c-0.004,0.153-0.284,0.286-1.199,0.286c-0.822,0-1.111-0.124-1.145-0.269v-0.01C94.519,268.755,94.519,268.755,94.517,268.755z"
				/>
			<path fill="#171617" d="M94.525,269.197c0,0,0.545,0.31,1.239,0.31v0.047l-3.455,0.022c0-0.791,2.135-0.821,2.208-0.821
				c0,0.004,0.001,0.007,0.001,0.01L94.525,269.197z"/>
			<path fill="#171617" d="M96.875,268.749l-0.008,0.448c-0.373,0.232-0.756,0.31-1.104,0.31c-0.693,0-1.239-0.31-1.239-0.31
				l-0.006-0.433c0.033,0.145,0.322,0.269,1.145,0.269c0.915,0,1.195-0.133,1.199-0.286L96.875,268.749z"/>
			<polygon fill="#171617" points="94.517,268.755 94.519,268.755 94.519,268.765 			"/>
			<path fill="#171617" d="M97.502,238.758c-0.112,0.377-0.268,0.723-0.484,0.959c-0.276,0.281-0.909,1.05-0.909,1.05l0.095,27.562
				h-0.97c0,0-0.001,0-0.004,0l0.044-27.562c0,0-1.195-1.096-1.611-1.983l0.436-0.088c0.294,0.678,1.583,1.788,1.583,1.788
				s1.167-0.904,1.413-1.791L97.502,238.758z"/>
			<path fill="#171617" d="M97.094,238.692c0.201-0.681,0.201-1.891,0.201-1.891c-1.718,0.671-3.419,0.134-3.419,0.134
				s0.094,0.937,0.165,1.565c0.006,0.06,0.027,0.124,0.057,0.195l-0.436,0.088c-0.077-0.166-0.127-0.322-0.138-0.464
				c-0.066-0.909-0.139-1.397-0.139-1.397l-0.627-0.352c0,0,0.975-1.816,2.724-1.954c1.75-0.142,2.905,1.795,2.905,1.795
				l-0.599,0.228c0,0,0,1.157-0.286,2.119L97.094,238.692z"/>
			<path fill="#171617" d="M95.704,270.508c-1.663,0-3.396-0.126-3.396-0.932l3.455-0.022L99,269.532v0.269
				C98.812,270.263,97.262,270.508,95.704,270.508z"/>
		</g>
		<g>
		</g>
	</g>
	<g id="XMLID_15_">
		<g>
			<path fill="#171617" d="M60.113,270.508c1.558,0,3.107-0.245,3.296-0.707v6.518c0,0-0.608,0.812-3.255,0.812
				c-2.644,0-3.437-0.895-3.437-0.895v-6.66C56.717,270.382,58.45,270.508,60.113,270.508z"/>
			<path fill="#FFFFFF" d="M61.704,236.801c0,0,0,1.21-0.201,1.891c-0.245,0.886-1.413,1.791-1.413,1.791s-1.289-1.11-1.583-1.788
				c-0.03-0.071-0.05-0.135-0.057-0.195c-0.071-0.629-0.165-1.565-0.165-1.565S59.985,237.473,61.704,236.801z"/>
			<path fill="#171617" d="M61.276,269.197l0.008-0.448c1.797,0.159,2.144,0.434,2.144,0.957c0,0.033-0.006,0.064-0.019,0.095
				v-0.269l-3.237,0.021v-0.047C60.52,269.507,60.903,269.43,61.276,269.197z"/>
			<path fill="#171617" d="M60.613,268.329l0.001,0.296c0,0-0.7,0.234-0.976-0.044v-0.252c0.003,0,0.004,0,0.004,0H60.613z"/>
			<path fill="#171617" d="M60.622,268.329c0,0,0.249,0.028,0.429,0.148c0.123,0.08,0.222,0.179,0.22,0.27
				c-0.005,0.153-0.285,0.286-1.2,0.286c-0.822,0-1.111-0.124-1.144-0.269v-0.01c0,0,0,0-0.002,0
				c-0.017-0.108,0.104-0.228,0.25-0.315c0.192-0.113,0.426-0.111,0.462-0.11v0.252c0.276,0.278,0.976,0.044,0.976,0.044
				l-0.001-0.296H60.622z"/>
			<path fill="#171617" d="M60.172,269.554l-3.455,0.022c0-0.791,2.135-0.821,2.208-0.821c0,0.004,0.002,0.007,0.002,0.01
				l0.006,0.433c0,0,0.546,0.31,1.239,0.31V269.554z"/>
			<path fill="#171617" d="M61.284,268.749l-0.008,0.448c-0.373,0.232-0.756,0.31-1.104,0.31c-0.693,0-1.239-0.31-1.239-0.31
				l-0.006-0.433c0.033,0.145,0.322,0.269,1.144,0.269c0.915,0,1.195-0.133,1.2-0.286L61.284,268.749z"/>
			<polygon fill="#171617" points="58.926,268.755 58.928,268.755 58.928,268.765 			"/>
			<path fill="#171617" d="M59.682,240.767c0,0-1.195-1.096-1.611-1.983l0.436-0.088c0.294,0.678,1.583,1.788,1.583,1.788
				s1.168-0.904,1.413-1.791l0.409,0.066c-0.112,0.377-0.267,0.723-0.484,0.959c-0.276,0.281-0.908,1.05-0.908,1.05l0.094,27.562
				h-0.97c0,0-0.001,0-0.004,0L59.682,240.767z"/>
			<path fill="#171617" d="M57.167,236.57c0,0,0.975-1.816,2.724-1.954c1.75-0.142,2.905,1.795,2.905,1.795l-0.599,0.228
				c0,0,0,1.157-0.286,2.119l-0.409-0.066c0.201-0.681,0.201-1.891,0.201-1.891c-1.718,0.671-3.419,0.134-3.419,0.134
				s0.094,0.937,0.165,1.565c0.006,0.06,0.027,0.124,0.057,0.195l-0.436,0.088c-0.077-0.166-0.127-0.322-0.138-0.464
				c-0.066-0.909-0.139-1.397-0.139-1.397L57.167,236.57z"/>
			<path fill="#171617" d="M60.113,270.508c-1.663,0-3.396-0.126-3.396-0.932l3.455-0.022l3.237-0.021v0.269
				C63.22,270.263,61.67,270.508,60.113,270.508z"/>
		</g>
		<g>
		</g>
	</g>
	<g id="XMLID_16_">
		<g>
			<path fill="#171617" d="M21.126,269.576c0,0.806,1.732,0.932,3.396,0.932c1.558,0,3.108-0.245,3.296-0.707v6.518
				c0,0-0.608,0.812-3.255,0.812c-2.644,0-3.437-0.895-3.437-0.895V269.576z"/>
			<path fill="#FFFFFF" d="M26.112,236.801c0,0,0,1.21-0.201,1.891c-0.245,0.886-1.413,1.791-1.413,1.791s-1.289-1.11-1.583-1.788
				c-0.03-0.071-0.05-0.135-0.057-0.195c-0.071-0.629-0.165-1.565-0.165-1.565S24.394,237.473,26.112,236.801z"/>
			<path fill="#171617" d="M24.581,269.554v-0.047c0.348,0,0.731-0.077,1.104-0.31l0.008-0.448c1.797,0.159,2.145,0.434,2.145,0.957
				c0,0.033-0.006,0.064-0.019,0.095v-0.269L24.581,269.554z"/>
			<path fill="#171617" d="M24.051,268.329h0.97l0.001,0.296c0,0-0.7,0.234-0.976-0.044v-0.252
				C24.05,268.329,24.051,268.329,24.051,268.329z"/>
			<path fill="#171617" d="M23.584,268.439c0.192-0.113,0.426-0.111,0.462-0.11v0.252c0.276,0.278,0.976,0.044,0.976,0.044
				l-0.001-0.296h0.009c0,0,0.249,0.028,0.429,0.148c0.123,0.08,0.222,0.179,0.22,0.27c-0.005,0.153-0.285,0.286-1.2,0.286
				c-0.822,0-1.111-0.124-1.144-0.269v-0.01c0,0,0,0-0.002,0C23.317,268.646,23.438,268.527,23.584,268.439z"/>
			<path fill="#171617" d="M24.581,269.554l-3.455,0.022c0-0.791,2.135-0.821,2.208-0.821c0,0.004,0.002,0.007,0.002,0.01
				l0.006,0.433c0,0,0.545,0.31,1.238,0.31V269.554z"/>
			<path fill="#171617" d="M24.581,269.507c-0.693,0-1.238-0.31-1.238-0.31l-0.006-0.433c0.033,0.145,0.322,0.269,1.144,0.269
				c0.915,0,1.195-0.133,1.2-0.286l0.012,0.002l-0.008,0.448C25.312,269.43,24.929,269.507,24.581,269.507z"/>
			<polygon fill="#171617" points="23.336,268.765 23.334,268.755 23.336,268.755 			"/>
			<path fill="#171617" d="M24.091,240.767c0,0-1.195-1.096-1.611-1.983l0.436-0.088c0.294,0.678,1.583,1.788,1.583,1.788
				s1.168-0.904,1.413-1.791l0.409,0.066c-0.112,0.377-0.267,0.723-0.484,0.959c-0.276,0.281-0.908,1.05-0.908,1.05l0.094,27.562
				h-0.97c0,0-0.001,0-0.004,0L24.091,240.767z"/>
			<path fill="#171617" d="M21.576,236.57c0,0,0.975-1.816,2.724-1.954c1.75-0.142,2.905,1.795,2.905,1.795l-0.599,0.228
				c0,0,0,1.157-0.286,2.119l-0.409-0.066c0.201-0.681,0.201-1.891,0.201-1.891c-1.718,0.671-3.419,0.134-3.419,0.134
				s0.094,0.937,0.165,1.565c0.006,0.06,0.027,0.124,0.057,0.195l-0.436,0.088c-0.077-0.166-0.127-0.322-0.138-0.464
				c-0.066-0.909-0.138-1.397-0.138-1.397L21.576,236.57z"/>
			<path fill="#171617" d="M21.126,269.576l3.455-0.022l3.237-0.021v0.269c-0.188,0.462-1.739,0.707-3.296,0.707
				C22.858,270.508,21.126,270.382,21.126,269.576z"/>
		</g>
		<g>
		</g>
	</g>
</g>
</svg>
