<svg xmlns="http://www.w3.org/2000/svg" viewBox="0 0 543.062 280.258" enable-background="new 0 0 543.062 280.258">
    <path fill="#4E131F" d="M677.61 166.452v630.9h-827.45v-622.4h.73s10.34 2.3 11.72 2.3c1.38 0 7.35.23 8.73.69 1.38.46 8.73-.46 10.8.69 2.06 1.15 15.85 3.45 17 3.22s9.42 1.14 11.95.23c2.52-.92 13.09-3.22 14.24-2.99s7.35 1.15 8.27 1.15 9.19-.69 10.34-1.15 8.73.46 10.57 0c1.84-.46 9.19-2.53 10.57-2.76s7.58 1.61 9.42.69 8.04-1.84 9.42-2.3 15.62-2.75 17-3.44 3.91-.69 7.13.69c3.21 1.38 6.66 1.15 8.27.69 1.61-.46 8.73 2.52 10.11 2.75 1.38.23 5.28 2.07 6.66 2.07s4.59.23 5.05 1.15 5.29 1.61 6.44 1.84 5.05.69 6.2 1.38c1.15.69 8.04 1.6 9.42 1.6 1.38 0 8.5 1.84 10.8 1.38s8.04-1.83 9.19-2.52 6.43.23 8.04 0 8.04-1.15 9.65-.69c1.61.46 3.68-.69 5.75-.69 2.06 0 6.66 0 8.04-.23s6.43-.23 7.58-.46 2.99-1.38 4.13-.69c1.15.69 3.91 2.07 5.06 1.61 1.15-.46 5.28-.69 6.66-1.15s14.02-1.61 16.31-1.61c2.3 0 14.02-1.84 15.86-2.3s24.81-1.38 27.57-1.61c2.76-.23 7.81.69 8.73.46.92-.23 7.81-.69 9.42.23 1.61.92 6.89-.46 8.27-.23s7.12 1.61 8.5.92c1.38-.69 8.5-.69 9.892 0 1.37.69 4.82 1.38 6.2.69 1.37-.69 12.86-1.61 14.93-2.53 2.07-.91 9.19-.92 13.8 0 4.59.92 8.26 1.84 9.64 1.84 1.37 0 1.83 1.84 2.98 1.61 1.15-.23 5.3-.92 6.45-.46 1.13.46 4.35.92 5.73.46s4.37.69 5.29.46c.91-.23 4.36.46 6.43.23 2.07-.23 1.61-1.15 6.9.46 0 0 8.95-2.53 11.49-2.53 2.52 0 6.66-1.38 7.8-1.61 1.15-.23 8.96.92 11.04-.23 2.07-1.14 7.8.46 9.87-.46 2.068-.91 53.35-2.29 55.88-2.29s9.65.92 15.17-.92 25.28-7.81 27.57-8.27c2.3-.46 9.198-2.99 10.12-3.22.92-.23 3.43-2.07 3.89-2.76s2.99-.46 4.83-1.38c1.84-.91 5.29-1.37 8.04-2.52.688-.29 1.39-.4 2.068-.4 2.04 0 3.85 1.03 4.36 1.55.69.68 2.07-.69 2.99 0 .92.68 2.53 3.44 3.91 3.44s6.2 2.99 8.96 3.45 12.87 4.13 15.39 3.67c2.53-.46 3.23 1.15 7.35.92 4.14-.23 18.15 1.15 20.91.69 2.76-.46 8.73-.23 10.57-1.15s6.08-2.14 7.58-2.75c.76-.31 1.48 2.18 2.76 2.29 2.06.18 1.74 2.8 4.28 3.03 2.52.23.33.49 2.16.26 1.84-.23 1.4-.14 2.1 0 .65.13.37-.3 1.52-.3s5.97 2.99 7.13 2.76c1.14-.23 1.84-.23 4.36.46 2.52.69 5.06-1.15 6.66-1.61 1.61-.46 7.12-.92 9.66-2.07 2.52-1.15 9.41-2.07 16.08.23 6.66 2.3 18.83.23 21.59 0 2.75-.23 11.49-1.15 13.78-1.15 2.3 0 15.4-1.38 17 .69h.74z"/>
</svg>
